<svg width="1088" height="688" viewBox="0 0 1088 688" fill="none" xmlns="http://www.w3.org/2000/svg">
<mask id="mask0_113_33" style="mask-type:alpha" maskUnits="userSpaceOnUse" x="30" y="1" width="1056" height="665">
<path d="M1083 398C1052.5 631.5 776 665.5 599 665.5C422 665.5 291.5 576 132 532C-27.4999 488 31.1665 198.5 102.166 106.5C173.166 14.5 258.166 1.99988 530.167 1.99988C802.167 1.99988 1113.5 164.5 1083 398Z" fill="#D9D9D9"/>
</mask>
<g mask="url(#mask0_113_33)">
<rect x="0.000244141" width="1088" height="688" fill="white"/>
<rect x="46.0002" y="-68" width="11" height="763" fill="#D1D1D1"/>
<rect x="164" y="-68" width="11" height="763" fill="#D1D1D1"/>
<rect x="282" y="-66" width="11" height="764" fill="#D1D1D1"/>
<rect x="399" y="-68" width="11" height="763" fill="#D1D1D1"/>
<rect x="517" y="-68" width="12" height="763" fill="#D1D1D1"/>
<rect x="-59.9998" y="416" width="12" height="581" transform="rotate(-90 -59.9998 416)" fill="#D1D1D1"/>
<rect x="-59.9998" y="299" width="12" height="581" transform="rotate(-90 -59.9998 299)" fill="#D1D1D1"/>
<rect x="-57.9998" y="180" width="9.99997" height="581" transform="rotate(-90 -57.9998 180)" fill="#D1D1D1"/>
<rect x="-59.9998" y="63" width="11" height="581" transform="rotate(-90 -59.9998 63)" fill="#D1D1D1"/>
<rect x="-55.9998" y="651" width="11" height="581" transform="rotate(-90 -55.9998 651)" fill="#D1D1D1"/>
<rect x="-53.9998" y="533" width="9.99997" height="583" transform="rotate(-90 -53.9998 533)" fill="#D1D1D1"/>
<rect x="632" y="-68" width="11" height="763" fill="#D1D1D1"/>
<rect x="750" y="-68" width="11" height="763" fill="#D1D1D1"/>
<rect x="868" y="-66" width="11" height="764" fill="#D1D1D1"/>
<rect x="985" y="-68" width="11" height="763" fill="#D1D1D1"/>
<rect x="526" y="416" width="12" height="581" transform="rotate(-90 526 416)" fill="#D1D1D1"/>
<rect x="526" y="299" width="12" height="581" transform="rotate(-90 526 299)" fill="#D1D1D1"/>
<rect x="528" y="180" width="9.99997" height="581" transform="rotate(-90 528 180)" fill="#D1D1D1"/>
<rect x="526" y="63" width="11" height="581" transform="rotate(-90 526 63)" fill="#D1D1D1"/>
<rect x="530" y="651" width="11" height="581" transform="rotate(-90 530 651)" fill="#D1D1D1"/>
<rect x="532" y="533" width="9.99997" height="583" transform="rotate(-90 532 533)" fill="#D1D1D1"/>
<rect x="340" y="531" width="41" height="157" fill="#606060"/>
<rect width="29" height="160" transform="matrix(1 0 0 -1 776 688)" fill="#9B7850"/>
<rect width="29" height="220" transform="matrix(1 0 0 -1 839 688)" fill="#9B7850"/>
<rect x="813" y="688" width="8" height="160" transform="rotate(180 813 688)" fill="#7E6241"/>
<rect x="876" y="688" width="8" height="160" transform="rotate(180 876 688)" fill="#7E6241"/>
<rect width="29" height="160" transform="matrix(1 0 0 -1 226 688)" fill="#9B7850"/>
<rect width="29" height="220" transform="matrix(1 0 0 -1 289 688)" fill="#9B7850"/>
<rect x="263" y="688" width="8" height="160" transform="rotate(180 263 688)" fill="#7E6241"/>
<rect x="326" y="688" width="8" height="160" transform="rotate(180 326 688)" fill="#7E6241"/>
<mask id="path-33-inside-1_113_33" fill="white">
<path d="M326 687H364V555H326V687Z"/>
</mask>
<path d="M326 687H364V555H326V687Z" fill="#D9D9D9"/>
<path d="M364 555V554H365V555H364ZM326 555H325V554H326V555ZM363 687V555H365V687H363ZM364 556H326V554H364V556ZM327 555V687H325V555H327Z" fill="black" mask="url(#path-33-inside-1_113_33)"/>
<mask id="path-35-inside-2_113_33" fill="white">
<path d="M372 692H362V560H372V692Z"/>
</mask>
<path d="M372 692H362V560H372V692Z" fill="#B9B9B9"/>
<path d="M362 560V559H361V560H362ZM372 560H373V559H372V560ZM363 692V560H361V692H363ZM362 561H372V559H362V561ZM371 560V692H373V560H371Z" fill="black" mask="url(#path-35-inside-2_113_33)"/>
<mask id="path-37-inside-3_113_33" fill="white">
<path d="M196 687H234V555H196V687Z"/>
</mask>
<path d="M196 687H234V555H196V687Z" fill="#D9D9D9"/>
<path d="M234 555V554H235V555H234ZM196 555H195V554H196V555ZM233 687V555H235V687H233ZM234 556H196V554H234V556ZM197 555V687H195V555H197Z" fill="black" mask="url(#path-37-inside-3_113_33)"/>
<mask id="path-39-inside-4_113_33" fill="white">
<path d="M242 692H232V560H242V692Z"/>
</mask>
<path d="M242 692H232V560H242V692Z" fill="#B9B9B9"/>
<path d="M232 560V559H231V560H232ZM242 560H243V559H242V560ZM233 692V560H231V692H233ZM232 561H242V559H232V561ZM241 560V692H243V560H241Z" fill="black" mask="url(#path-39-inside-4_113_33)"/>
<circle cx="276" cy="122" r="107" fill="url(#paint0_radial_113_33)"/>
<path d="M272 426H967L923 510H272V426Z" fill="#E9D985"/>
<rect x="256" y="587" width="41" height="101" fill="#606060"/>
<path d="M437 463C437 447.5 498.469 472.528 524 449.5C542.36 432.94 550.5 417 550.5 392" stroke="black" stroke-width="3"/>
<rect x="272" y="510" width="651" height="18" fill="#9B9250"/>
<path d="M967 426L923 510V528L967 445V426Z" fill="#847C43"/>
<path d="M742 149.086L411 124V389.914L742 415V149.086Z" fill="#1B303D"/>
<path d="M724 162.328L430 140V376.672L724 399V162.328Z" fill="white"/>
<rect x="532" y="463" width="90" height="13" fill="#1B303D"/>
<rect x="538" y="399" width="78" height="77" fill="#1B303D"/>
<path d="M514.996 293.862H638.945" stroke="#1B303D" stroke-width="3"/>
<path d="M574.626 237.292H579.105L578.424 329.023C578.424 329.705 577.669 330.606 576.866 330.606C576.062 330.606 575.313 329.705 575.308 329.023L574.626 237.292Z" fill="#1B303D"/>
<path d="M574.626 237.292H579.105L578.424 329.023C578.424 329.705 577.669 330.606 576.866 330.606C576.062 330.606 575.313 329.705 575.308 329.023L574.626 237.292Z" stroke="#1B303D"/>
<circle cx="576.89" cy="235.077" r="3.18916" fill="#1B303D"/>
<path d="M571.968 253.262V246.738L570.41 246.738C565.614 246.738 560.652 250.974 560.652 256.89C560.652 269.062 583.682 273.663 583.682 281.721C583.682 289.779 568.686 292.336 568.686 302.025C568.686 311.714 579.714 311.495 579.714 316.607V322.158C582.903 322.158 582.903 318.944 582.903 316.607C582.903 309.815 572.606 307.089 572.606 302.025C572.606 296.961 588.564 292.506 588.564 281.721C588.564 270.937 565.76 262.732 565.76 256.89C565.76 254.796 567.878 253.262 568.754 253.262H571.968Z" fill="#1B303D"/>
<path d="M581.728 253.262V246.738L583.286 246.738C588.082 246.738 593.043 250.974 593.043 256.89C593.043 269.062 570.013 273.663 570.013 281.721C570.013 289.779 585.009 292.336 585.009 302.025C585.009 311.714 573.981 311.495 573.981 316.607V322.158C570.792 322.158 570.792 318.944 570.792 316.607C570.792 309.815 581.09 307.089 581.09 302.025C581.09 296.961 565.132 292.506 565.132 281.721C565.132 270.937 587.936 262.732 587.936 256.89C587.936 254.796 585.818 253.262 584.941 253.262H581.728Z" fill="#1B303D"/>
<path d="M542.15 231.888H567.104C567.104 236.343 570.828 239.629 572.094 239.824V243.914H559.167C557.779 243.914 555.54 242.088 555.54 240.506H551.669C549.794 240.506 548.261 238.51 548.261 236.854H545.778C543.927 236.854 542.15 234.833 542.15 233.47V231.888Z" fill="#1B303D" stroke="#1B303D" stroke-width="3"/>
<path d="M611.606 231.888H586.652C586.652 236.343 582.928 239.629 581.662 239.824V243.914H594.589C595.976 243.914 598.216 242.088 598.216 240.506H602.087C603.961 240.506 605.495 238.509 605.495 236.854H607.978C609.829 236.854 611.606 234.833 611.606 233.47V231.888Z" fill="#1B303D" stroke="#1B303D" stroke-width="3"/>
<path d="M504.553 289.301C501.579 278.202 501.198 266.567 503.439 255.298C505.681 244.028 510.485 233.425 517.48 224.309C524.475 215.192 533.474 207.808 543.779 202.726C554.085 197.643 565.422 195 576.912 195C588.403 195 599.74 197.643 610.045 202.726C620.351 207.808 629.349 215.192 636.344 224.309C643.339 233.425 648.143 244.028 650.385 255.298C652.627 266.567 652.246 278.202 649.272 289.301" stroke="#1B303D" stroke-width="3" stroke-linejoin="bevel" stroke-dasharray="7 7"/>
<path d="M641.788 307.368C635.213 318.757 625.757 328.213 614.368 334.788C602.98 341.363 590.062 344.825 576.912 344.825C563.762 344.825 550.844 341.363 539.456 334.788C528.068 328.213 518.611 318.757 512.036 307.368" stroke="#1B303D" stroke-width="3" stroke-linejoin="bevel" stroke-dasharray="7 7"/>
<path d="M542.15 278.111C545.096 278.111 547.483 275.724 547.483 272.778C547.483 269.833 545.096 267.445 542.15 267.445C539.205 267.445 536.817 269.833 536.817 272.778C536.817 275.724 539.205 278.111 542.15 278.111ZM543.15 293.862L543.15 272.778L541.15 272.778L541.15 293.862L543.15 293.862Z" fill="#1B303D"/>
<path d="M532.566 302.585C529.621 302.585 527.233 304.973 527.233 307.918C527.233 310.864 529.621 313.251 532.566 313.251C535.512 313.251 537.9 310.864 537.9 307.918C537.9 304.973 535.512 302.585 532.566 302.585ZM531.566 293.862L531.566 307.918L533.566 307.918L533.566 293.862L531.566 293.862Z" fill="#1B303D"/>
<path d="M551.414 302.585C548.469 302.585 546.081 304.973 546.081 307.918C546.081 310.864 548.469 313.251 551.414 313.251C554.36 313.251 556.748 310.864 556.748 307.918C556.748 304.973 554.36 302.585 551.414 302.585ZM550.414 293.862L550.414 307.918L552.414 307.918L552.414 293.862L550.414 293.862Z" fill="#1B303D"/>
<path d="M601.888 302.585C598.942 302.585 596.555 304.973 596.555 307.918C596.555 310.864 598.942 313.251 601.888 313.251C604.833 313.251 607.221 310.864 607.221 307.918C607.221 304.973 604.833 302.585 601.888 302.585ZM600.888 293.862L600.888 307.918L602.888 307.918L602.888 293.862L600.888 293.862Z" fill="#1B303D"/>
<path d="M620.736 302.585C617.791 302.585 615.403 304.973 615.403 307.918C615.403 310.864 617.791 313.251 620.736 313.251C623.682 313.251 626.069 310.864 626.069 307.918C626.069 304.973 623.682 302.585 620.736 302.585ZM619.736 293.862L619.736 307.918L621.736 307.918L621.736 293.862L619.736 293.862Z" fill="#1B303D"/>
<path d="M611.472 278.111C614.417 278.111 616.805 275.724 616.805 272.778C616.805 269.833 614.417 267.445 611.472 267.445C608.526 267.445 606.138 269.833 606.138 272.778C606.138 275.724 608.526 278.111 611.472 278.111ZM612.472 293.862L612.472 272.778L610.472 272.778L610.472 293.862L612.472 293.862Z" fill="#1B303D"/>
<circle cx="514.996" cy="293.862" r="5.56965" fill="white" stroke="#1B303D"/>
<path d="M514.296 289.893H515.697V293.162H518.965V293.862V294.562H515.697V297.831H514.296V294.562H511.028V293.862V293.162H514.296V289.893Z" fill="#1B303D" stroke="#1B303D" stroke-linejoin="round"/>
<path d="M645.973 293.862L635.431 299.949L635.431 287.776L645.973 293.862Z" fill="#1B303D"/>
<path d="M305.725 373.582C290.929 379.617 274.595 380.896 259.009 377.241C243.422 373.586 229.361 365.179 218.792 353.195L233.277 340.56C241.191 349.533 251.719 355.828 263.39 358.565C275.061 361.302 287.291 360.344 298.37 355.826L305.725 373.582Z" fill="white"/>
<ellipse cx="276.45" cy="302.899" rx="58.3333" ry="58" transform="rotate(12.7762 276.45 302.899)" fill="#606060"/>
<path d="M218.565 349.246C169.024 358.799 164.241 370.337 151.267 398.237C196.557 446.302 286.266 468.533 348.266 442.908C348.595 412.14 349.257 399.668 308.682 369.681C276.139 386.868 240.511 378.789 218.565 349.246Z" fill="#606060"/>
<path d="M275.5 190C290.5 190 290.5 190 290.5 185C290.5 185 289.5 185.462 275.5 185.462C261.5 185.462 260.5 185 260.5 185C260.5 190 260.5 190 275.5 190Z" fill="#C2C2C2" stroke="black"/>
<path d="M275.5 197C290.5 197 290.5 197 290.5 192C290.5 192 289.5 192.462 275.5 192.462C261.5 192.462 260.5 192 260.5 192C260.5 197 260.5 197 275.5 197Z" fill="#C2C2C2" stroke="black"/>
<path d="M275.5 204C290.5 204 290.5 204 290.5 199C290.5 199 289.5 199.462 275.5 199.462C261.5 199.462 260.5 199 260.5 199C260.5 204 260.5 204 275.5 204Z" fill="#C2C2C2" stroke="black"/>
<path d="M275.5 211C282.5 211 282.5 211 282.5 206C282.5 206 282.033 206.462 275.5 206.462C268.967 206.462 268.5 206 268.5 206C268.5 211 268.5 211 275.5 211Z" fill="#C2C2C2" stroke="black"/>
<path d="M275.5 70C250.923 70 231 89.9233 231 114.5C231 128.209 255.5 165 260.5 180C260.5 180 261.5 183 275.5 183C289.5 183 290.5 180 290.5 180C295.5 165 320 128.209 320 114.5C320 89.9233 300.077 70 275.5 70Z" fill="#FFD242" stroke="black"/>
<path d="M252.983 136.599C250.135 133.703 247.876 130.264 246.335 126.48C244.793 122.696 244 118.64 244 114.545C244 110.449 244.793 106.393 246.335 102.609C247.876 98.8247 250.135 95.3863 252.983 92.4902C253.815 91.6449 255.125 92.0606 255.547 92.4902C255.97 92.9198 256.268 94.3646 255.547 95.0977C253.036 97.6515 251.044 100.683 249.685 104.02C248.326 107.357 247.626 110.933 247.626 114.545C247.626 118.156 248.326 121.732 249.685 125.069C251.044 128.406 253.036 131.438 255.547 133.991C256.135 134.589 256.166 135.716 255.547 136.432C254.904 137.175 253.519 137.144 252.983 136.599Z" fill="white" stroke="white" stroke-linejoin="round"/>
<path d="M165.312 531.5L121.801 620.5H361.688L405.199 531.5H165.312Z" fill="#D9D9D9" stroke="black"/>
<rect x="209" y="184.506" width="29" height="8" rx="4" transform="rotate(-45 209 184.506)" fill="#FFD242"/>
<rect x="191" y="147.506" width="29" height="8" rx="4" transform="rotate(-15 191 147.506)" fill="#FFD242"/>
<rect x="190" y="70" width="29" height="8" rx="4" transform="rotate(30 190 70)" fill="#FFD242"/>
<rect x="218.657" y="41" width="29" height="8" rx="4" transform="rotate(45 218.657 41)" fill="#FFD242"/>
<rect x="179" y="110" width="29" height="8" rx="4" fill="#FFD242"/>
<rect width="29" height="8" rx="4" transform="matrix(-0.707107 -0.707107 -0.707107 0.707107 346.163 184.506)" fill="#FFD242"/>
<rect width="29" height="8" rx="4" transform="matrix(-0.965926 -0.258819 -0.258819 0.965926 364.163 147.506)" fill="#FFD242"/>
<rect width="29" height="8" rx="4" transform="matrix(-0.866025 0.5 0.5 0.866025 365.163 70)" fill="#FFD242"/>
<rect width="29" height="8" rx="4" transform="matrix(-0.707107 0.707107 0.707107 0.707107 336.506 41)" fill="#FFD242"/>
<rect width="29" height="8" rx="4" transform="matrix(-1 0 0 1 376.163 110)" fill="#FFD242"/>
<path d="M340 531H381L340 621H299L340 531Z" fill="#606060"/>
<path d="M319.5 599L340 621.5C340 621.5 378 538 381 531.5C384 525 382 516 378.5 512.5C375 509 364.5 504.5 360.5 509C356.5 513.5 319.5 599 319.5 599Z" fill="#606060"/>
<path d="M352 463H564L543.5 501H352V463Z" fill="#1B303D"/>
<mask id="path-92-inside-5_113_33" fill="white">
<path d="M131 415C131 403.402 140.402 394 152 394H351C362.598 394 372 403.402 372 415V595C372 606.598 362.598 616 351 616H152C140.402 616 131 606.598 131 595V415Z"/>
</mask>
<path d="M131 415C131 403.402 140.402 394 152 394H351C362.598 394 372 403.402 372 415V595C372 606.598 362.598 616 351 616H152C140.402 616 131 606.598 131 595V415Z" fill="#B9B9B9"/>
<path d="M130 415C130 402.85 139.85 393 152 393H351C363.151 393 373 402.85 373 415H371C371 403.954 362.046 395 351 395H152C140.955 395 132 403.954 132 415H130ZM372 616H131H372ZM152 616C139.85 616 130 606.15 130 594V415C130 402.85 139.85 393 152 393V395C140.955 395 132 403.954 132 415V595C132 606.598 140.955 616 152 616ZM351 393C363.151 393 373 402.85 373 415V594C373 606.15 363.151 616 351 616C362.046 616 371 606.598 371 595V415C371 403.954 362.046 395 351 395V393Z" fill="black" mask="url(#path-92-inside-5_113_33)"/>
<mask id="path-94-inside-6_113_33" fill="white">
<path d="M131 466H372V616H131V466Z"/>
</mask>
<path d="M131 466H372V616H131V466Z" fill="#B9B9B9"/>
<path d="M372 616V617H373V616H372ZM131 616H130V617H131V616ZM371 466V616H373V466H371ZM372 615H131V617H372V615ZM132 616V466H130V616H132Z" fill="black" mask="url(#path-94-inside-6_113_33)"/>
<path d="M150.5 395L142 396.5L133 401L140.5 399.5L150.5 395Z" fill="#B9B9B9"/>
<mask id="path-97-inside-7_113_33" fill="white">
<path d="M289 688H327V640H289V688Z"/>
</mask>
<path d="M289 688H327V640H289V688Z" fill="#D9D9D9"/>
<path d="M327 640V639H328V640H327ZM289 640H288V639H289V640ZM326 688V640H328V688H326ZM327 641H289V639H327V641ZM290 640V688H288V640H290Z" fill="black" mask="url(#path-97-inside-7_113_33)"/>
<mask id="path-99-inside-8_113_33" fill="white">
<path d="M152 688H190V640H152V688Z"/>
</mask>
<path d="M152 688H190V640H152V688Z" fill="#D9D9D9"/>
<path d="M190 640V639H191V640H190ZM152 640H151V639H152V640ZM189 688V640H191V688H189ZM190 641H152V639H190V641ZM153 640V688H151V640H153Z" fill="black" mask="url(#path-99-inside-8_113_33)"/>
<mask id="path-101-inside-9_113_33" fill="white">
<path d="M335 690H325V642H335V690Z"/>
</mask>
<path d="M335 690H325V642H335V690Z" fill="#B9B9B9"/>
<path d="M325 642V641H324V642H325ZM335 642H336V641H335V642ZM326 690V642H324V690H326ZM325 643H335V641H325V643ZM334 642V690H336V642H334Z" fill="black" mask="url(#path-101-inside-9_113_33)"/>
<mask id="path-103-inside-10_113_33" fill="white">
<path d="M199 690H189V642H199V690Z"/>
</mask>
<path d="M199 690H189V642H199V690Z" fill="#B9B9B9"/>
<path d="M189 642V641H188V642H189ZM199 642H200V641H199V642ZM190 690V642H188V690H190ZM189 643H199V641H189V643ZM198 642V690H200V642H198Z" fill="black" mask="url(#path-103-inside-10_113_33)"/>
<mask id="path-105-inside-11_113_33" fill="white">
<path d="M121 621H362V644H121V621Z"/>
</mask>
<path d="M121 621H362V644H121V621Z" fill="#D9D9D9"/>
<path d="M362 644V645H363V644H362ZM121 644H120V645H121V644ZM361 621V644H363V621H361ZM362 643H121V645H362V643ZM122 644V621H120V644H122Z" fill="black" mask="url(#path-105-inside-11_113_33)"/>
<path d="M406 554L362 644V621L406 531V554Z" fill="#B9B9B9" stroke="black"/>
<path d="M371 413V602L362 621V417.5L371 413Z" fill="#B9B9B9"/>
<mask id="path-109-inside-12_113_33" fill="white">
<path d="M121 420C121 408.402 130.402 399 142 399H341C352.598 399 362 408.402 362 420V600C362 611.598 352.598 621 341 621H142C130.402 621 121 611.598 121 600V420Z"/>
</mask>
<path d="M121 420C121 408.402 130.402 399 142 399H341C352.598 399 362 408.402 362 420V600C362 611.598 352.598 621 341 621H142C130.402 621 121 611.598 121 600V420Z" fill="#D9D9D9"/>
<path d="M120 420C120 407.85 129.85 398 142 398H341C353.151 398 363 407.85 363 420H361C361 408.954 352.046 400 341 400H142C130.955 400 122 408.954 122 420H120ZM362 621H121H362ZM142 621C129.85 621 120 611.15 120 599V420C120 407.85 129.85 398 142 398V400C130.955 400 122 408.954 122 420V600C122 611.598 130.955 621 142 621ZM341 398C353.151 398 363 407.85 363 420V599C363 611.15 353.151 621 341 621C352.046 621 361 611.598 361 600V420C361 408.954 352.046 400 341 400V398Z" fill="black" mask="url(#path-109-inside-12_113_33)"/>
<mask id="path-111-inside-13_113_33" fill="white">
<path d="M121 471H362V621H121V471Z"/>
</mask>
<path d="M121 471H362V621H121V471Z" fill="#D9D9D9"/>
<path d="M362 621V622H363V621H362ZM121 621H120V622H121V621ZM361 471V621H363V471H361ZM362 620H121V622H362V620ZM122 621V471H120V621H122Z" fill="black" mask="url(#path-111-inside-13_113_33)"/>
<path d="M133 401.5L145 395.5" stroke="black"/>
</g>
<defs>
<radialGradient id="paint0_radial_113_33" cx="0" cy="0" r="1" gradientUnits="userSpaceOnUse" gradientTransform="translate(276 122) rotate(90) scale(107)">
<stop offset="0.35" stop-color="#FFD242" stop-opacity="0.78"/>
<stop offset="1" stop-color="white" stop-opacity="0"/>
</radialGradient>
</defs>
</svg>
