<svg width="1088" height="688" viewBox="0 0 1088 688" fill="none" xmlns="http://www.w3.org/2000/svg">
<path d="M48 59C48 48.5066 56.5066 40 67 40L1021 40C1031.49 40 1040 48.5066 1040 59V661C1040 671.493 1031.49 680 1021 680L67 680C56.5066 680 48 671.493 48 661V59Z" fill="#1B303D"/>
<path d="M104 99H978V614L104 614V99Z" fill="white"/>
<rect x="141.5" y="150.5" width="326" height="396" rx="16.5" fill="#E8E8E8" stroke="#1B303D" stroke-width="3"/>
<path d="M189.201 404.099H420.016" stroke="#1B303D" stroke-width="6"/>
<circle cx="304.458" cy="294.63" r="6.43879" stroke="#1B303D"/>
<path d="M300.746 299.268L300.746 299.256H308.08L308.064 301.421L307.925 320.104L306.814 469.572V469.575C306.814 470.045 306.541 470.666 306.059 471.184C305.579 471.699 304.977 472.022 304.413 472.022C303.849 472.022 303.249 471.699 302.771 471.184C302.29 470.666 302.015 470.044 302.011 469.572L302.004 468.573L301.996 467.578L301.989 466.586L301.982 465.599L301.974 464.616L301.967 463.636L301.96 462.661L301.953 461.689L301.946 460.721L301.938 459.757L301.931 458.797L301.924 457.84L301.917 456.887L301.91 455.939L301.903 454.994L301.896 454.052L301.889 453.115L301.882 452.181L301.875 451.252L301.868 450.325L301.861 449.403L301.855 448.484L301.848 447.57L301.841 446.658L301.834 445.751L301.828 444.847L301.821 443.947L301.814 443.051L301.808 442.159L301.801 441.27L301.794 440.384L301.788 439.503L301.781 438.625L301.775 437.751L301.768 436.88L301.762 436.013L301.756 435.15L301.749 434.291L301.743 433.434L301.736 432.582L301.73 431.733L301.724 430.888L301.718 430.046L301.711 429.208L301.705 428.374L301.699 427.543L301.693 426.716L301.687 425.892L301.681 425.072L301.675 424.255L301.668 423.442L301.662 422.632L301.656 421.826L301.651 421.023L301.645 420.224L301.639 419.428L301.633 418.636L301.627 417.847L301.621 417.062L301.615 416.28L301.609 415.502L301.604 414.727L301.598 413.956L301.592 413.188L301.587 412.423L301.581 411.662L301.575 410.904L301.57 410.15L301.564 409.399L301.559 408.651L301.553 407.907L301.548 407.166L301.542 406.429L301.537 405.694L301.531 404.964L301.526 404.236L301.52 403.512L301.515 402.791L301.51 402.074L301.504 401.359L301.499 400.649L301.494 399.941L301.489 399.237L301.483 398.536L301.478 397.838L301.473 397.143L301.468 396.452L301.463 395.764L301.458 395.079L301.453 394.398L301.448 393.719L301.443 393.044L301.438 392.372L301.433 391.704L301.428 391.038L301.423 390.376L301.418 389.717L301.413 389.061L301.408 388.408L301.403 387.758L301.399 387.111L301.394 386.468L301.389 385.828L301.384 385.191L301.38 384.557L301.375 383.926L301.37 383.298L301.366 382.673L301.361 382.052L301.356 381.433L301.352 380.818L301.347 380.205L301.343 379.596L301.338 378.989L301.334 378.386L301.329 377.786L301.325 377.189L301.32 376.594L301.316 376.003L301.312 375.415L301.307 374.83L301.303 374.248L301.299 373.668L301.294 373.092L301.29 372.519L301.286 371.948L301.282 371.381L301.277 370.816L301.273 370.255L301.269 369.696L301.265 369.141L301.261 368.588L301.257 368.038L301.253 367.491L301.249 366.947L301.245 366.406L301.241 365.867L301.237 365.332L301.233 364.799L301.229 364.269L301.225 363.742L301.221 363.218L301.217 362.697L301.213 362.179L301.209 361.663L301.206 361.15L301.202 360.64L301.198 360.133L301.194 359.628L301.191 359.126L301.187 358.628L301.183 358.131L301.18 357.638L301.176 357.147L301.172 356.659L301.169 356.174L301.165 355.691L301.161 355.212L301.158 354.734L301.154 354.26L301.151 353.788L301.147 353.319L301.144 352.853L301.141 352.389L301.137 351.928L301.134 351.47L301.13 351.014L301.127 350.561L301.124 350.11L301.12 349.662L301.117 349.217L301.114 348.774L301.11 348.334L301.107 347.897L301.104 347.462L301.101 347.03L301.097 346.6L301.094 346.173L301.091 345.748L301.088 345.326L301.085 344.906L301.082 344.489L301.079 344.075L301.076 343.663L301.064 342.04L301.052 340.456L301.049 340.066L301.046 339.679L301.043 339.294L301.04 338.912L301.038 338.531L301.035 338.154L301.032 337.779L301.029 337.406L301.026 337.035L301.024 336.667L301.021 336.301L301.018 335.938L301.016 335.577L301.013 335.218L301.01 334.862L301.008 334.508L301.005 334.156L301.002 333.807L301 333.46L300.997 333.115L300.995 332.773L300.992 332.432L300.99 332.094L300.987 331.759L300.985 331.425L300.982 331.094L300.98 330.765L300.977 330.439L300.975 330.114L300.973 329.792L300.97 329.472L300.968 329.154L300.966 328.839L300.963 328.525L300.961 328.214L300.959 327.905L300.956 327.598L300.954 327.293L300.952 326.991L300.95 326.69L300.945 326.096L300.943 325.802L300.941 325.51L300.939 325.22L300.936 324.933L300.934 324.647L300.932 324.363L300.93 324.082L300.928 323.803L300.926 323.525L300.924 323.25L300.922 322.977L300.92 322.706L300.918 322.437L300.916 322.169L300.914 321.904L300.912 321.641L300.91 321.38L300.908 321.121L300.906 320.864L300.904 320.609L300.902 320.356L300.901 320.104L300.899 319.855L300.897 319.608L300.895 319.363L300.893 319.119L300.891 318.878L300.89 318.638L300.888 318.4L300.886 318.165L300.884 317.931L300.883 317.699L300.881 317.469L300.879 317.24L300.878 317.014L300.876 316.789L300.874 316.567L300.873 316.346L300.871 316.127L300.869 315.91L300.868 315.694L300.866 315.481L300.865 315.269L300.863 315.059L300.862 314.851L300.86 314.644L300.859 314.44L300.857 314.237L300.856 314.036L300.854 313.837L300.853 313.639L300.851 313.443L300.85 313.249L300.848 313.056L300.847 312.866L300.845 312.677L300.844 312.489L300.843 312.304L300.841 312.12L300.84 311.938L300.839 311.757L300.837 311.578L300.836 311.401L300.835 311.225L300.833 311.051L300.832 310.878L300.831 310.708L300.83 310.539L300.828 310.371L300.827 310.205L300.822 309.557L300.821 309.399L300.82 309.242L300.819 309.087L300.818 308.934L300.816 308.782L300.815 308.631L300.814 308.482L300.813 308.335L300.812 308.189L300.811 308.044L300.81 307.902L300.809 307.76L300.808 307.62L300.807 307.481L300.806 307.344L300.805 307.209L300.804 307.074L300.803 306.942L300.802 306.81L300.801 306.68L300.8 306.552L300.799 306.425L300.798 306.299L300.797 306.174L300.796 306.051L300.795 305.93L300.794 305.809L300.793 305.69L300.793 305.573L300.792 305.457L300.791 305.342L300.79 305.228L300.789 305.116L300.788 305.005L300.788 304.895L300.787 304.787L300.786 304.68L300.785 304.574L300.784 304.469L300.784 304.366L300.783 304.264L300.782 304.163L300.781 304.063L300.781 303.965L300.78 303.868L300.779 303.772L300.779 303.677L300.778 303.584L300.777 303.491L300.776 303.4L300.776 303.31L300.775 303.221L300.774 303.134L300.774 303.047L300.773 302.962L300.773 302.878L300.772 302.795L300.771 302.713L300.771 302.632L300.77 302.552L300.77 302.474L300.769 302.396L300.768 302.32L300.768 302.244L300.767 302.17L300.767 302.097L300.766 302.025L300.766 301.953L300.765 301.883L300.765 301.814L300.764 301.746L300.764 301.679L300.763 301.613L300.763 301.548L300.762 301.484L300.762 301.421L300.761 301.359L300.761 301.298L300.76 301.238L300.76 301.179L300.76 301.12L300.759 301.063L300.759 301.007L300.758 300.951L300.758 300.897L300.757 300.843L300.757 300.79L300.757 300.739L300.756 300.688L300.756 300.638L300.756 300.588L300.755 300.54L300.755 300.493L300.755 300.446L300.754 300.4L300.754 300.355L300.754 300.311L300.753 300.268L300.753 300.225L300.753 300.184L300.752 300.143L300.752 300.103L300.752 300.063L300.751 300.025L300.751 299.987L300.751 299.95L300.751 299.914L300.75 299.878L300.75 299.843L300.75 299.809L300.75 299.776L300.749 299.743L300.749 299.711L300.749 299.68L300.749 299.649L300.748 299.619L300.748 299.59L300.748 299.562L300.748 299.534L300.748 299.506L300.747 299.48L300.747 299.454L300.747 299.428L300.747 299.404L300.747 299.379L300.746 299.356L300.746 299.333L300.746 299.311L300.746 299.289L300.746 299.268Z" fill="#1B303D" stroke="#1B303D"/>
<circle cx="304.458" cy="294.63" r="5.93879" fill="#1B303D"/>
<path d="M295.291 328.495V316.345L292.39 316.345C283.459 316.345 274.22 324.234 274.22 335.25C274.22 357.917 317.106 366.485 317.106 381.491C317.106 396.496 289.181 401.256 289.181 419.299C289.181 437.343 309.717 436.935 309.717 446.455V456.791C315.656 456.791 315.656 450.807 315.656 446.455C315.656 433.806 296.479 428.729 296.479 419.299C296.479 409.87 326.196 401.574 326.196 381.491C326.196 361.408 283.731 346.13 283.731 335.25C283.731 331.351 287.675 328.495 289.307 328.495H295.291Z" fill="#1B303D"/>
<path d="M313.467 328.495V316.345L316.368 316.345C325.299 316.345 334.538 324.234 334.538 335.25C334.538 357.917 291.651 366.485 291.651 381.491C291.651 396.496 319.577 401.256 319.577 419.299C319.577 437.343 299.041 436.935 299.041 446.455V456.791C293.102 456.791 293.102 450.807 293.102 446.455C293.102 433.806 312.278 428.729 312.278 419.299C312.278 409.87 282.562 401.574 282.562 381.491C282.562 361.408 325.027 346.13 325.027 335.25C325.027 331.351 321.083 328.495 319.451 328.495H313.467Z" fill="#1B303D"/>
<path d="M239.766 288.692H286.234C286.234 296.988 293.17 303.108 295.528 303.471V311.087H271.455C268.871 311.087 264.7 307.687 264.7 304.74H257.492C254.001 304.74 251.145 301.022 251.145 297.94H246.521C243.076 297.94 239.766 294.177 239.766 291.638V288.692Z" fill="#1B303D" stroke="#1B303D" stroke-width="4"/>
<path d="M369.105 288.691H322.637C322.637 296.988 315.701 303.108 313.344 303.47V311.087H337.416C340 311.087 344.171 307.687 344.171 304.74H351.379C354.87 304.74 357.726 301.022 357.726 297.94H362.35C365.796 297.94 369.105 294.177 369.105 291.638V288.691Z" fill="#1B303D" stroke="#1B303D" stroke-width="4"/>
<path d="M169.753 395.605C164.215 374.937 163.506 353.271 167.68 332.285C171.855 311.298 180.801 291.554 193.827 274.578C206.853 257.602 223.61 243.85 242.801 234.386C261.992 224.922 283.102 220 304.5 220C325.898 220 347.008 224.922 366.199 234.386C385.39 243.85 402.147 257.602 415.173 274.578C428.199 291.554 437.145 311.298 441.32 332.285C445.494 353.271 444.785 374.937 439.247 395.605" stroke="#1B303D" stroke-width="4" stroke-linejoin="bevel" stroke-dasharray="7 7"/>
<path d="M425.311 429.25C413.067 450.457 395.457 468.067 374.25 480.311C353.043 492.554 328.987 499 304.5 499C280.013 499 255.957 492.554 234.75 480.311C213.543 468.067 195.933 450.457 183.689 429.25" stroke="#1B303D" stroke-width="4" stroke-linejoin="bevel" stroke-dasharray="7 7"/>
<path d="M239.766 370.17C242.712 370.17 245.1 367.782 245.1 364.836C245.1 361.891 242.712 359.503 239.766 359.503C236.821 359.503 234.433 361.891 234.433 364.836C234.433 367.782 236.821 370.17 239.766 370.17ZM240.766 404.099L240.766 364.836L238.766 364.836L238.766 404.099L240.766 404.099Z" fill="#1B303D"/>
<path d="M221.92 424.94C218.974 424.94 216.586 427.328 216.586 430.274C216.586 433.219 218.974 435.607 221.92 435.607C224.865 435.607 227.253 433.219 227.253 430.274C227.253 427.328 224.865 424.94 221.92 424.94ZM220.92 404.099L220.92 430.274L222.92 430.274L222.92 404.099L220.92 404.099Z" fill="#1B303D"/>
<path d="M257.018 424.94C254.072 424.94 251.684 427.328 251.684 430.274C251.684 433.219 254.072 435.607 257.018 435.607C259.963 435.607 262.351 433.219 262.351 430.274C262.351 427.328 259.963 424.94 257.018 424.94ZM256.018 404.099L256.018 430.274L258.018 430.274L258.018 404.099L256.018 404.099Z" fill="#1B303D"/>
<path d="M351.009 424.94C348.064 424.94 345.676 427.328 345.676 430.274C345.676 433.219 348.064 435.607 351.009 435.607C353.955 435.607 356.343 433.219 356.343 430.274C356.343 427.328 353.955 424.94 351.009 424.94ZM350.009 404.099L350.009 430.274L352.009 430.274L352.009 404.099L350.009 404.099Z" fill="#1B303D"/>
<path d="M386.107 424.94C383.162 424.94 380.774 427.328 380.774 430.274C380.774 433.219 383.162 435.607 386.107 435.607C389.053 435.607 391.441 433.219 391.441 430.274C391.441 427.328 389.053 424.94 386.107 424.94ZM385.107 404.099L385.107 430.274L387.107 430.274L387.107 404.099L385.107 404.099Z" fill="#1B303D"/>
<path d="M368.856 370.17C371.801 370.17 374.189 367.782 374.189 364.836C374.189 361.891 371.801 359.503 368.856 359.503C365.91 359.503 363.522 361.891 363.522 364.836C363.522 367.782 365.91 370.17 368.856 370.17ZM369.856 404.099L369.856 364.836L367.856 364.836L367.856 404.099L369.856 404.099Z" fill="#1B303D"/>
<circle cx="189.201" cy="404.099" r="9.80277" fill="white" stroke="#1B303D" stroke-width="3"/>
<path d="M187.897 396.708H190.505V402.795H196.592V404.099V405.403H190.505V411.489H187.897V405.403H181.811V404.099V402.795H187.897V396.708Z" fill="#1B303D" stroke="#1B303D" stroke-linejoin="round"/>
<path d="M433.103 404.099L413.472 415.433L413.472 392.765L433.103 404.099Z" fill="#1B303D"/>
<mask id="mask0_66_927" style="mask-type:alpha" maskUnits="userSpaceOnUse" x="617" y="429" width="332" height="41">
<rect x="947.903" y="429.5" width="20.3045" height="330.403" transform="rotate(90 947.903 429.5)" fill="#D9D9D9" stroke="black"/>
<path d="M948.403 450.304L911.712 469.242L650.14 469.242L617 450.304L948.403 450.304Z" fill="#9E9E9E"/>
</mask>
<g mask="url(#mask0_66_927)">
<path d="M948.403 450.111L911.718 469.387L650.184 469.387L617.048 450.111L948.403 450.111Z" fill="#BFBFBF"/>
<path d="M650.426 468.887L614.381 448.775L782.726 448.775L950.912 448.775L911.488 468.887L650.426 468.887Z" stroke="black"/>
<rect x="947.903" y="429.5" width="20.3045" height="330.403" transform="rotate(90 947.903 429.5)" fill="#E6E6E6" stroke="black"/>
</g>
<mask id="mask1_66_927" style="mask-type:alpha" maskUnits="userSpaceOnUse" x="673" y="459" width="219" height="42">
<rect x="891.091" y="460.273" width="20.3045" height="216.779" transform="rotate(90 891.091 460.273)" fill="#D9D9D9" stroke="black"/>
<path d="M891.591 481.078L867.48 500.015L695.59 500.015L673.812 481.078L891.591 481.078Z" fill="#9E9E9E"/>
</mask>
<g mask="url(#mask1_66_927)">
<path d="M891.591 481.078L867.48 500.015L695.59 500.015L673.812 481.078L891.591 481.078Z" fill="#BFBFBF"/>
<path d="M695.775 499.515L672.054 479.21L782.702 479.21L893.252 479.21L867.308 499.515L695.775 499.515Z" stroke="black"/>
<rect x="891.091" y="460.273" width="20.3045" height="216.779" transform="rotate(90 891.091 460.273)" fill="#E6E6E6" stroke="black"/>
</g>
<mask id="mask2_66_927" style="mask-type:alpha" maskUnits="userSpaceOnUse" x="714" y="490" width="135" height="41">
<rect x="848.482" y="491.046" width="20.3045" height="133.929" transform="rotate(90 848.482 491.046)" fill="#D9D9D9" stroke="black"/>
<path d="M848.982 511.85L834.044 530.788L727.547 530.788L714.054 511.85L848.982 511.85Z" fill="#9E9E9E"/>
</mask>
<g mask="url(#mask2_66_927)">
<path d="M848.982 511.85L834.044 530.788L727.547 530.788L714.054 511.85L848.982 511.85Z" fill="#BFBFBF"/>
<path d="M727.802 530.288L713.105 509.983L781.518 509.983L849.876 509.983L833.802 530.288L727.802 530.288Z" stroke="black"/>
<rect x="848.482" y="491.046" width="20.3045" height="133.929" transform="rotate(90 848.482 491.046)" fill="#E6E6E6" stroke="black"/>
</g>
<rect x="829.545" y="543.124" width="20.3045" height="96.0538" transform="rotate(90 829.545 543.124)" fill="#E6E6E6" stroke="black"/>
<rect x="517" y="136" width="314" height="229" rx="11" fill="#1B303D"/>
<line x1="548" y1="173" x2="756" y2="173" stroke="#94D3A8" stroke-width="8"/>
<line x1="548" y1="197" x2="781" y2="197" stroke="#94D3A8" stroke-width="8"/>
<line x1="548" y1="221" x2="745" y2="221" stroke="#94D3A8" stroke-width="8"/>
<line x1="548" y1="245" x2="764" y2="245" stroke="#94D3A8" stroke-width="8"/>
<line x1="548" y1="269" x2="781" y2="269" stroke="#94D3A8" stroke-width="8"/>
<line x1="548" y1="293" x2="756" y2="293" stroke="#94D3A8" stroke-width="8"/>
<line x1="548" y1="317" x2="764" y2="317" stroke="#94D3A8" stroke-width="8"/>
<line x1="548" y1="341" x2="756" y2="341" stroke="#94D3A8" stroke-width="8"/>
<circle cx="533.5" cy="148.5" r="5.5" fill="#AECAFF"/>
<circle cx="549.5" cy="148.5" r="5.5" fill="#AECAFF"/>
<circle cx="565.5" cy="148.5" r="5.5" fill="#AECAFF"/>
<path d="M517 147C517 140.925 521.925 136 528 136H820C826.075 136 831 140.925 831 147V151C831 157.075 826.075 162 820 162H528C521.925 162 517 157.075 517 151V147Z" fill="#0F1C24"/>
<line x1="548" y1="173" x2="756" y2="173" stroke="#94D3A8" stroke-width="8"/>
<line x1="548" y1="197" x2="781" y2="197" stroke="#94D3A8" stroke-width="8"/>
<line x1="548" y1="221" x2="745" y2="221" stroke="#94D3A8" stroke-width="8"/>
<line x1="548" y1="245" x2="764" y2="245" stroke="#94D3A8" stroke-width="8"/>
<line x1="548" y1="269" x2="781" y2="269" stroke="#94D3A8" stroke-width="8"/>
<line x1="548" y1="293" x2="756" y2="293" stroke="#94D3A8" stroke-width="8"/>
<line x1="548" y1="317" x2="764" y2="317" stroke="#94D3A8" stroke-width="8"/>
<line x1="548" y1="341" x2="756" y2="341" stroke="#94D3A8" stroke-width="8"/>
<circle cx="533.5" cy="148.5" r="5.5" fill="#AECAFF"/>
<circle cx="549.5" cy="148.5" r="5.5" fill="#AECAFF"/>
<circle cx="565.5" cy="148.5" r="5.5" fill="#AECAFF"/>
</svg>
