<svg width="1088" height="688" viewBox="0 0 1088 688" fill="none" xmlns="http://www.w3.org/2000/svg">
<mask id="mask0_66_925" style="mask-type:alpha" maskUnits="userSpaceOnUse" x="8" y="5" width="1076" height="681">
<path d="M1084 75.7548C1084 166.771 1061.36 513.217 940.811 632.286C831.228 740.525 349.956 651.706 233.191 651.706C-12.0219 651.706 8.41729 309.434 8.41729 135.68C8.41729 -38.0735 261.591 102.943 506.804 102.943C752.017 102.943 1084 -97.9991 1084 75.7548Z" fill="#D9D9D9"/>
</mask>
<g mask="url(#mask0_66_925)">
<rect x="568" y="-69" width="583" height="763" fill="#FAFFE3"/>
<circle cx="583.586" cy="82.9463" r="5.54822" fill="#749C75"/>
<circle cx="583.586" cy="126.222" r="5.54822" fill="#749C75"/>
<circle cx="626.862" cy="82.9463" r="5.54822" fill="#749C75"/>
<circle cx="626.862" cy="126.222" r="5.54822" fill="#749C75"/>
<circle cx="670.138" cy="82.9463" r="5.54822" fill="#749C75"/>
<circle cx="670.138" cy="126.222" r="5.54822" fill="#749C75"/>
<circle cx="713.414" cy="82.9463" r="5.54822" fill="#749C75"/>
<circle cx="713.414" cy="126.222" r="5.54822" fill="#749C75"/>
<circle cx="756.691" cy="82.9463" r="5.54822" fill="#749C75"/>
<circle cx="756.691" cy="126.222" r="5.54822" fill="#749C75"/>
<circle cx="799.967" cy="82.9463" r="5.54822" fill="#749C75"/>
<circle cx="799.967" cy="126.222" r="5.54822" fill="#749C75"/>
<circle cx="583.586" cy="169.499" r="5.54822" fill="#749C75"/>
<circle cx="583.586" cy="212.775" r="5.54822" fill="#749C75"/>
<circle cx="626.862" cy="169.499" r="5.54822" fill="#749C75"/>
<circle cx="626.862" cy="212.775" r="5.54822" fill="#749C75"/>
<circle cx="670.138" cy="169.499" r="5.54822" fill="#749C75"/>
<circle cx="670.138" cy="212.775" r="5.54822" fill="#749C75"/>
<circle cx="713.414" cy="169.499" r="5.54822" fill="#749C75"/>
<circle cx="713.414" cy="212.775" r="5.54822" fill="#749C75"/>
<circle cx="756.691" cy="169.499" r="5.54822" fill="#749C75"/>
<circle cx="756.691" cy="212.775" r="5.54822" fill="#749C75"/>
<circle cx="799.967" cy="169.499" r="5.54822" fill="#749C75"/>
<circle cx="799.967" cy="212.775" r="5.54822" fill="#749C75"/>
<circle cx="583.586" cy="39.6702" r="5.54822" fill="#749C75"/>
<circle cx="626.862" cy="39.6702" r="5.54822" fill="#749C75"/>
<circle cx="670.138" cy="39.6702" r="5.54822" fill="#749C75"/>
<circle cx="713.414" cy="39.6702" r="5.54822" fill="#749C75"/>
<circle cx="756.691" cy="39.6702" r="5.54822" fill="#749C75"/>
<circle cx="799.967" cy="39.6702" r="5.54822" fill="#749C75"/>
<circle cx="843.243" cy="82.9463" r="5.54822" fill="#749C75"/>
<circle cx="843.243" cy="126.222" r="5.54822" fill="#749C75"/>
<circle cx="886.519" cy="82.9463" r="5.54822" fill="#749C75"/>
<circle cx="886.519" cy="126.222" r="5.54822" fill="#749C75"/>
<circle cx="929.795" cy="82.9463" r="5.54822" fill="#749C75"/>
<circle cx="929.795" cy="126.222" r="5.54822" fill="#749C75"/>
<circle cx="973.071" cy="82.9463" r="5.54822" fill="#749C75"/>
<circle cx="973.071" cy="126.222" r="5.54822" fill="#749C75"/>
<circle cx="1016.35" cy="82.9463" r="5.54822" fill="#749C75"/>
<circle cx="1016.35" cy="126.222" r="5.54822" fill="#749C75"/>
<circle cx="1059.62" cy="82.9463" r="5.54822" fill="#749C75"/>
<circle cx="1059.62" cy="126.222" r="5.54822" fill="#749C75"/>
<circle cx="843.243" cy="169.499" r="5.54822" fill="#749C75"/>
<circle cx="843.243" cy="212.775" r="5.54822" fill="#749C75"/>
<circle cx="886.519" cy="169.499" r="5.54822" fill="#749C75"/>
<circle cx="886.519" cy="212.775" r="5.54822" fill="#749C75"/>
<circle cx="929.795" cy="169.499" r="5.54822" fill="#749C75"/>
<circle cx="929.795" cy="212.775" r="5.54822" fill="#749C75"/>
<circle cx="973.071" cy="169.499" r="5.54822" fill="#749C75"/>
<circle cx="973.071" cy="212.775" r="5.54822" fill="#749C75"/>
<circle cx="1016.35" cy="169.499" r="5.54822" fill="#749C75"/>
<circle cx="1016.35" cy="212.775" r="5.54822" fill="#749C75"/>
<circle cx="1059.62" cy="169.499" r="5.54822" fill="#749C75"/>
<circle cx="1059.62" cy="212.775" r="5.54822" fill="#749C75"/>
<circle cx="843.243" cy="39.6702" r="5.54822" fill="#749C75"/>
<circle cx="886.519" cy="39.6702" r="5.54822" fill="#749C75"/>
<circle cx="929.795" cy="39.6702" r="5.54822" fill="#749C75"/>
<circle cx="973.071" cy="39.6702" r="5.54822" fill="#749C75"/>
<circle cx="1016.35" cy="39.6702" r="5.54822" fill="#749C75"/>
<circle cx="1059.62" cy="39.6702" r="5.54822" fill="#749C75"/>
<circle cx="583.586" cy="429.155" r="5.54822" fill="#749C75"/>
<circle cx="583.586" cy="472.431" r="5.54822" fill="#749C75"/>
<circle cx="626.862" cy="429.155" r="5.54822" fill="#749C75"/>
<circle cx="626.862" cy="472.431" r="5.54822" fill="#749C75"/>
<circle cx="670.138" cy="429.155" r="5.54822" fill="#749C75"/>
<circle cx="670.138" cy="472.431" r="5.54822" fill="#749C75"/>
<circle cx="713.414" cy="429.155" r="5.54822" fill="#749C75"/>
<circle cx="713.414" cy="472.431" r="5.54822" fill="#749C75"/>
<circle cx="756.691" cy="429.155" r="5.54822" fill="#749C75"/>
<circle cx="756.691" cy="472.431" r="5.54822" fill="#749C75"/>
<circle cx="799.967" cy="429.155" r="5.54822" fill="#749C75"/>
<circle cx="799.967" cy="472.431" r="5.54822" fill="#749C75"/>
<circle cx="583.586" cy="515.708" r="5.54822" fill="#749C75"/>
<circle cx="583.586" cy="558.984" r="5.54822" fill="#749C75"/>
<circle cx="626.862" cy="515.708" r="5.54822" fill="#749C75"/>
<circle cx="626.862" cy="558.984" r="5.54822" fill="#749C75"/>
<circle cx="670.138" cy="515.708" r="5.54822" fill="#749C75"/>
<circle cx="670.138" cy="558.984" r="5.54822" fill="#749C75"/>
<circle cx="713.414" cy="515.708" r="5.54822" fill="#749C75"/>
<circle cx="713.414" cy="558.984" r="5.54822" fill="#749C75"/>
<circle cx="756.691" cy="515.708" r="5.54822" fill="#749C75"/>
<circle cx="756.691" cy="558.984" r="5.54822" fill="#749C75"/>
<circle cx="799.967" cy="515.708" r="5.54822" fill="#749C75"/>
<circle cx="799.967" cy="558.984" r="5.54822" fill="#749C75"/>
<circle cx="583.586" cy="256.051" r="5.54822" fill="#749C75"/>
<circle cx="583.586" cy="299.327" r="5.54822" fill="#749C75"/>
<circle cx="626.862" cy="256.051" r="5.54822" fill="#749C75"/>
<circle cx="626.862" cy="299.327" r="5.54822" fill="#749C75"/>
<circle cx="670.138" cy="256.051" r="5.54822" fill="#749C75"/>
<circle cx="670.138" cy="299.327" r="5.54822" fill="#749C75"/>
<circle cx="713.414" cy="256.051" r="5.54822" fill="#749C75"/>
<circle cx="713.414" cy="299.327" r="5.54822" fill="#749C75"/>
<circle cx="756.691" cy="256.051" r="5.54822" fill="#749C75"/>
<circle cx="756.691" cy="299.327" r="5.54822" fill="#749C75"/>
<circle cx="799.967" cy="256.051" r="5.54822" fill="#749C75"/>
<circle cx="799.967" cy="299.327" r="5.54822" fill="#749C75"/>
<circle cx="583.586" cy="342.603" r="5.54822" fill="#749C75"/>
<circle cx="583.586" cy="385.879" r="5.54822" fill="#749C75"/>
<circle cx="626.862" cy="342.603" r="5.54822" fill="#749C75"/>
<circle cx="626.862" cy="385.879" r="5.54822" fill="#749C75"/>
<circle cx="670.138" cy="342.603" r="5.54822" fill="#749C75"/>
<circle cx="670.138" cy="385.879" r="5.54822" fill="#749C75"/>
<circle cx="713.414" cy="342.603" r="5.54822" fill="#749C75"/>
<circle cx="713.414" cy="385.879" r="5.54822" fill="#749C75"/>
<circle cx="756.691" cy="342.603" r="5.54822" fill="#749C75"/>
<circle cx="756.691" cy="385.879" r="5.54822" fill="#749C75"/>
<circle cx="799.967" cy="342.603" r="5.54822" fill="#749C75"/>
<circle cx="799.967" cy="385.879" r="5.54822" fill="#749C75"/>
<circle cx="843.243" cy="429.155" r="5.54822" fill="#749C75"/>
<circle cx="843.243" cy="472.431" r="5.54822" fill="#749C75"/>
<circle cx="886.519" cy="429.155" r="5.54822" fill="#749C75"/>
<circle cx="886.519" cy="472.431" r="5.54822" fill="#749C75"/>
<circle cx="929.795" cy="429.155" r="5.54822" fill="#749C75"/>
<circle cx="929.795" cy="472.431" r="5.54822" fill="#749C75"/>
<circle cx="973.071" cy="429.155" r="5.54822" fill="#749C75"/>
<circle cx="973.071" cy="472.431" r="5.54822" fill="#749C75"/>
<circle cx="1016.35" cy="429.155" r="5.54822" fill="#749C75"/>
<circle cx="1016.35" cy="472.431" r="5.54822" fill="#749C75"/>
<circle cx="1059.62" cy="429.155" r="5.54822" fill="#749C75"/>
<circle cx="1059.62" cy="472.431" r="5.54822" fill="#749C75"/>
<circle cx="843.243" cy="515.708" r="5.54822" fill="#749C75"/>
<circle cx="843.243" cy="558.984" r="5.54822" fill="#749C75"/>
<circle cx="886.519" cy="515.708" r="5.54822" fill="#749C75"/>
<circle cx="886.519" cy="558.984" r="5.54822" fill="#749C75"/>
<circle cx="929.795" cy="515.708" r="5.54822" fill="#749C75"/>
<circle cx="929.795" cy="558.984" r="5.54822" fill="#749C75"/>
<circle cx="973.071" cy="515.708" r="5.54822" fill="#749C75"/>
<circle cx="973.071" cy="558.984" r="5.54822" fill="#749C75"/>
<circle cx="1016.35" cy="515.708" r="5.54822" fill="#749C75"/>
<circle cx="1016.35" cy="558.984" r="5.54822" fill="#749C75"/>
<circle cx="1059.62" cy="515.708" r="5.54822" fill="#749C75"/>
<circle cx="1059.62" cy="558.984" r="5.54822" fill="#749C75"/>
<circle cx="843.243" cy="256.051" r="5.54822" fill="#749C75"/>
<circle cx="843.243" cy="299.327" r="5.54822" fill="#749C75"/>
<circle cx="886.519" cy="256.051" r="5.54822" fill="#749C75"/>
<circle cx="886.519" cy="299.327" r="5.54822" fill="#749C75"/>
<circle cx="929.795" cy="256.051" r="5.54822" fill="#749C75"/>
<circle cx="929.795" cy="299.327" r="5.54822" fill="#749C75"/>
<circle cx="973.071" cy="256.051" r="5.54822" fill="#749C75"/>
<circle cx="973.071" cy="299.327" r="5.54822" fill="#749C75"/>
<circle cx="1016.35" cy="256.051" r="5.54822" fill="#749C75"/>
<circle cx="1016.35" cy="299.327" r="5.54822" fill="#749C75"/>
<circle cx="1059.62" cy="256.051" r="5.54822" fill="#749C75"/>
<circle cx="1059.62" cy="299.327" r="5.54822" fill="#749C75"/>
<circle cx="843.243" cy="342.603" r="5.54822" fill="#749C75"/>
<circle cx="843.243" cy="385.879" r="5.54822" fill="#749C75"/>
<circle cx="886.519" cy="342.603" r="5.54822" fill="#749C75"/>
<circle cx="886.519" cy="385.879" r="5.54822" fill="#749C75"/>
<circle cx="929.795" cy="342.603" r="5.54822" fill="#749C75"/>
<circle cx="929.795" cy="385.879" r="5.54822" fill="#749C75"/>
<circle cx="973.071" cy="342.603" r="5.54822" fill="#749C75"/>
<circle cx="973.071" cy="385.879" r="5.54822" fill="#749C75"/>
<circle cx="1016.35" cy="342.603" r="5.54822" fill="#749C75"/>
<circle cx="1016.35" cy="385.879" r="5.54822" fill="#749C75"/>
<circle cx="1059.62" cy="342.603" r="5.54822" fill="#749C75"/>
<circle cx="1059.62" cy="385.879" r="5.54822" fill="#749C75"/>
<circle cx="583.586" cy="602.26" r="5.54822" fill="#749C75"/>
<circle cx="626.862" cy="602.26" r="5.54822" fill="#749C75"/>
<circle cx="670.138" cy="602.26" r="5.54822" fill="#749C75"/>
<circle cx="713.414" cy="602.26" r="5.54822" fill="#749C75"/>
<circle cx="756.691" cy="602.26" r="5.54822" fill="#749C75"/>
<circle cx="799.967" cy="602.26" r="5.54822" fill="#749C75"/>
<circle cx="583.586" cy="645.536" r="5.54822" fill="#749C75"/>
<circle cx="583.586" cy="688.812" r="5.54822" fill="#749C75"/>
<circle cx="626.862" cy="645.536" r="5.54822" fill="#749C75"/>
<circle cx="626.862" cy="688.812" r="5.54822" fill="#749C75"/>
<circle cx="670.138" cy="645.536" r="5.54822" fill="#749C75"/>
<circle cx="670.138" cy="688.812" r="5.54822" fill="#749C75"/>
<circle cx="713.414" cy="645.536" r="5.54822" fill="#749C75"/>
<circle cx="713.414" cy="688.812" r="5.54822" fill="#749C75"/>
<circle cx="756.691" cy="645.536" r="5.54822" fill="#749C75"/>
<circle cx="756.691" cy="688.812" r="5.54822" fill="#749C75"/>
<circle cx="799.967" cy="645.536" r="5.54822" fill="#749C75"/>
<circle cx="799.967" cy="688.812" r="5.54822" fill="#749C75"/>
<circle cx="843.243" cy="602.26" r="5.54822" fill="#749C75"/>
<circle cx="886.519" cy="602.26" r="5.54822" fill="#749C75"/>
<circle cx="929.795" cy="602.26" r="5.54822" fill="#749C75"/>
<circle cx="973.071" cy="602.26" r="5.54822" fill="#749C75"/>
<circle cx="1016.35" cy="602.26" r="5.54822" fill="#749C75"/>
<circle cx="1059.62" cy="602.26" r="5.54822" fill="#749C75"/>
<circle cx="843.243" cy="645.536" r="5.54822" fill="#749C75"/>
<circle cx="843.243" cy="688.812" r="5.54822" fill="#749C75"/>
<circle cx="886.519" cy="645.536" r="5.54822" fill="#749C75"/>
<circle cx="886.519" cy="688.812" r="5.54822" fill="#749C75"/>
<circle cx="929.795" cy="645.536" r="5.54822" fill="#749C75"/>
<circle cx="929.795" cy="688.812" r="5.54822" fill="#749C75"/>
<circle cx="973.071" cy="645.536" r="5.54822" fill="#749C75"/>
<circle cx="973.071" cy="688.812" r="5.54822" fill="#749C75"/>
<circle cx="1016.35" cy="645.536" r="5.54822" fill="#749C75"/>
<circle cx="1016.35" cy="688.812" r="5.54822" fill="#749C75"/>
<circle cx="1059.62" cy="645.536" r="5.54822" fill="#749C75"/>
<circle cx="1059.62" cy="688.812" r="5.54822" fill="#749C75"/>
<rect x="-56" y="-69" width="585" height="763" fill="#F3F3F3"/>
<rect x="46" y="-68" width="11" height="763" fill="#C2C2C2"/>
<rect x="164" y="-68" width="11" height="763" fill="#C2C2C2"/>
<rect x="282" y="-66" width="11" height="764" fill="#C2C2C2"/>
<rect x="399" y="-68" width="11" height="763" fill="#C2C2C2"/>
<rect x="517" y="-68" width="12" height="763" fill="#C2C2C2"/>
<rect x="-60" y="416" width="12" height="581" transform="rotate(-90 -60 416)" fill="#C2C2C2"/>
<rect x="-60" y="299" width="12" height="581" transform="rotate(-90 -60 299)" fill="#C2C2C2"/>
<rect x="-58" y="180" width="9.99997" height="581" transform="rotate(-90 -58 180)" fill="#C2C2C2"/>
<rect x="-60" y="63" width="11" height="581" transform="rotate(-90 -60 63)" fill="#C2C2C2"/>
<rect x="-56" y="651" width="11" height="581" transform="rotate(-90 -56 651)" fill="#C2C2C2"/>
<rect x="-54" y="533" width="9.99997" height="583" transform="rotate(-90 -54 533)" fill="#C2C2C2"/>
<rect x="-4" y="13" width="9.99997" height="524" transform="rotate(-90 -4 13)" fill="#C2C2C2"/>
<path d="M40.7286 614.5L85.824 497.5H1015.81L1054.31 614.5H40.7286Z" fill="#E9D985" stroke="#B2BD7E"/>
<path d="M84 192.086L414 167V432.914L84 458V192.086Z" fill="#1B303D"/>
<path d="M1013 192.086L682 167V432.914L1013 458V192.086Z" fill="#1B303D"/>
<path d="M103 205.328L396 183V419.672L103 442V205.328Z" fill="white"/>
<path d="M995 205.328L701 183V419.672L995 442V205.328Z" fill="white"/>
<rect x="211" y="442" width="78" height="77" fill="#393939"/>
<path d="M103 205.328L396 183V419.672L103 442V205.328Z" fill="white"/>
<rect x="211" y="442" width="78" height="77" fill="#1B303D"/>
<rect x="204" y="506" width="91" height="13" fill="#1B303D"/>
<rect x="803" y="506" width="90" height="13" fill="#1B303D"/>
<rect x="809" y="442" width="78" height="77" fill="#1B303D"/>
<path d="M179.06 339.582H321.35" stroke="#1B303D" stroke-width="3"/>
<path d="M247.513 274.641H252.655L251.873 379.946C251.873 380.728 251.006 381.762 250.084 381.762C249.162 381.762 248.301 380.728 248.295 379.946L247.513 274.641Z" fill="#1B303D"/>
<path d="M247.513 274.641H252.655L251.873 379.946C251.873 380.728 251.006 381.762 250.084 381.762C249.162 381.762 248.301 380.728 248.295 379.946L247.513 274.641Z" stroke="#1B303D"/>
<circle cx="250.112" cy="272.097" r="3.66108" fill="#1B303D"/>
<path d="M244.461 292.974V285.484L242.673 285.484C237.167 285.484 231.472 290.347 231.472 297.138C231.472 311.112 257.91 316.394 257.91 325.644C257.91 334.895 240.694 337.829 240.694 348.952C240.694 360.075 253.354 359.824 253.354 365.693V372.064C257.015 372.064 257.015 368.375 257.015 365.693C257.015 357.895 245.194 354.765 245.194 348.952C245.194 343.139 263.513 338.025 263.513 325.644C263.513 313.264 237.335 303.845 237.335 297.138C237.335 294.735 239.766 292.974 240.772 292.974H244.461Z" fill="#1B303D"/>
<path d="M255.665 292.974V285.484L257.454 285.484C262.96 285.484 268.655 290.347 268.655 297.138C268.655 311.112 242.217 316.394 242.217 325.644C242.217 334.895 259.432 337.829 259.432 348.952C259.432 360.075 246.772 359.824 246.772 365.693V372.064C243.111 372.064 243.111 368.375 243.111 365.693C243.111 357.895 254.933 354.765 254.933 348.952C254.933 343.139 236.614 338.025 236.614 325.644C236.614 313.264 262.792 303.845 262.792 297.138C262.792 294.735 260.36 292.974 259.354 292.974H255.665Z" fill="#1B303D"/>
<path d="M210.232 268.436H238.878C238.878 273.551 243.153 277.324 244.607 277.547V282.242H229.767C228.174 282.242 225.603 280.146 225.603 278.33H221.159C219.007 278.33 217.246 276.038 217.246 274.138H214.396C212.272 274.138 210.232 271.818 210.232 270.253V268.436Z" fill="#1B303D" stroke="#1B303D" stroke-width="3"/>
<path d="M289.965 268.436H261.319C261.319 273.551 257.043 277.324 255.59 277.547V282.242H270.43C272.023 282.242 274.594 280.146 274.594 278.33H279.037C281.189 278.33 282.95 276.038 282.95 274.138H285.801C287.925 274.138 289.965 271.818 289.965 270.253V268.436Z" fill="#1B303D" stroke="#1B303D" stroke-width="3"/>
<path d="M167.071 334.346C163.657 321.604 163.219 308.248 165.793 295.311C168.366 282.373 173.881 270.201 181.911 259.736C189.942 249.271 200.272 240.793 212.102 234.959C223.933 229.125 236.947 226.09 250.138 226.09C263.329 226.09 276.343 229.125 288.174 234.959C300.004 240.793 310.334 249.271 318.364 259.736C326.394 270.201 331.909 282.373 334.483 295.311C337.056 308.248 336.619 321.604 333.205 334.346" stroke="#1B303D" stroke-width="3" stroke-linejoin="bevel" stroke-dasharray="7 7"/>
<path d="M324.614 355.086C317.066 368.16 306.21 379.016 293.137 386.564C280.063 394.112 265.234 398.085 250.138 398.085C235.042 398.085 220.212 394.112 207.139 386.564C194.066 379.016 183.21 368.16 175.662 355.086" stroke="#1B303D" stroke-width="3" stroke-linejoin="bevel" stroke-dasharray="7 7"/>
<path d="M210.232 320.711C213.177 320.711 215.565 318.323 215.565 315.378C215.565 312.432 213.177 310.044 210.232 310.044C207.286 310.044 204.898 312.432 204.898 315.378C204.898 318.323 207.286 320.711 210.232 320.711ZM211.232 339.582L211.232 315.378L209.232 315.378L209.232 339.582L211.232 339.582Z" fill="#1B303D"/>
<path d="M199.23 350.384C196.284 350.384 193.896 352.772 193.896 355.718C193.896 358.663 196.284 361.051 199.23 361.051C202.175 361.051 204.563 358.663 204.563 355.718C204.563 352.772 202.175 350.384 199.23 350.384ZM198.23 339.582L198.23 355.718L200.23 355.718L200.23 339.582L198.23 339.582Z" fill="#1B303D"/>
<path d="M220.867 350.384C217.921 350.384 215.533 352.772 215.533 355.718C215.533 358.663 217.921 361.051 220.867 361.051C223.812 361.051 226.2 358.663 226.2 355.718C226.2 352.772 223.812 350.384 220.867 350.384ZM219.867 339.582L219.867 355.718L221.867 355.718L221.867 339.582L219.867 339.582Z" fill="#1B303D"/>
<path d="M278.809 350.384C275.864 350.384 273.476 352.772 273.476 355.718C273.476 358.663 275.864 361.051 278.809 361.051C281.755 361.051 284.142 358.663 284.142 355.718C284.142 352.772 281.755 350.384 278.809 350.384ZM277.809 339.582L277.809 355.718L279.809 355.718L279.809 339.582L277.809 339.582Z" fill="#1B303D"/>
<path d="M300.446 350.384C297.501 350.384 295.113 352.772 295.113 355.718C295.113 358.663 297.501 361.051 300.446 361.051C303.392 361.051 305.78 358.663 305.78 355.718C305.78 352.772 303.392 350.384 300.446 350.384ZM299.446 339.582L299.446 355.718L301.446 355.718L301.446 339.582L299.446 339.582Z" fill="#1B303D"/>
<path d="M289.811 320.711C292.757 320.711 295.144 318.323 295.144 315.378C295.144 312.432 292.757 310.044 289.811 310.044C286.866 310.044 284.478 312.432 284.478 315.378C284.478 318.323 286.866 320.711 289.811 320.711ZM290.811 339.582L290.811 315.378L288.811 315.378L288.811 339.582L290.811 339.582Z" fill="#1B303D"/>
<circle cx="179.06" cy="339.581" r="6.46781" fill="white" stroke="#1B303D"/>
<path d="M178.256 335.026H179.864V338.777H183.616V339.581V340.385H179.864V344.137H178.256V340.385H174.504V339.581V338.777H178.256V335.026Z" fill="#1B303D" stroke="#1B303D" stroke-linejoin="round"/>
<path d="M329.417 339.581L317.315 346.569L317.315 332.594L329.417 339.581Z" fill="#1B303D"/>
<path d="M777.158 339.582H919.448" stroke="#1B303D" stroke-width="3"/>
<path d="M845.612 274.641H850.754L849.971 379.946C849.971 380.728 849.105 381.762 848.183 381.762C847.26 381.762 846.4 380.728 846.394 379.946L845.612 274.641Z" fill="#1B303D"/>
<path d="M845.612 274.641H850.754L849.971 379.946C849.971 380.728 849.105 381.762 848.183 381.762C847.26 381.762 846.4 380.728 846.394 379.946L845.612 274.641Z" stroke="#1B303D"/>
<circle cx="848.211" cy="272.097" r="3.66108" fill="#1B303D"/>
<path d="M842.56 292.974V285.484L840.771 285.484C835.266 285.484 829.57 290.347 829.57 297.138C829.57 311.112 856.008 316.394 856.008 325.644C856.008 334.895 838.793 337.829 838.793 348.952C838.793 360.075 851.453 359.824 851.453 365.693V372.064C855.114 372.064 855.114 368.375 855.114 365.693C855.114 357.895 843.292 354.765 843.292 348.952C843.292 343.139 861.611 338.025 861.611 325.644C861.611 313.264 835.433 303.845 835.433 297.138C835.433 294.735 837.865 292.974 838.871 292.974H842.56Z" fill="#1B303D"/>
<path d="M853.764 292.974V285.484L855.553 285.484C861.058 285.484 866.754 290.347 866.754 297.138C866.754 311.112 840.316 316.394 840.316 325.644C840.316 334.895 857.531 337.829 857.531 348.952C857.531 360.075 844.871 359.824 844.871 365.693V372.064C841.21 372.064 841.21 368.375 841.21 365.693C841.21 357.895 853.032 354.765 853.032 348.952C853.032 343.139 834.712 338.025 834.712 325.644C834.712 313.264 860.891 303.845 860.891 297.138C860.891 294.735 858.459 292.974 857.453 292.974H853.764Z" fill="#1B303D"/>
<path d="M808.33 268.436H836.976C836.976 273.551 841.252 277.324 842.705 277.547V282.242H827.865C826.272 282.242 823.701 280.146 823.701 278.33H819.257C817.105 278.33 815.345 276.038 815.345 274.138H812.494C810.37 274.138 808.33 271.818 808.33 270.253V268.436Z" fill="#1B303D" stroke="#1B303D" stroke-width="3"/>
<path d="M888.063 268.436H859.418C859.418 273.551 855.142 277.324 853.688 277.547V282.242H868.528C870.121 282.242 872.693 280.146 872.693 278.33H877.136C879.288 278.33 881.049 276.038 881.049 274.138H883.899C886.023 274.138 888.063 271.818 888.063 270.253V268.436Z" fill="#1B303D" stroke="#1B303D" stroke-width="3"/>
<path d="M765.169 334.346C761.755 321.604 761.318 308.248 763.891 295.311C766.465 282.373 771.98 270.201 780.01 259.736C788.04 249.271 798.37 240.793 810.201 234.959C822.031 229.125 835.045 226.09 848.236 226.09C861.427 226.09 874.441 229.125 886.272 234.959C898.102 240.793 908.432 249.271 916.463 259.736C924.493 270.201 930.008 282.373 932.581 295.311C935.155 308.248 934.717 321.604 931.303 334.346" stroke="#1B303D" stroke-width="3" stroke-linejoin="bevel" stroke-dasharray="7 7"/>
<path d="M922.712 355.086C915.164 368.16 904.308 379.016 891.235 386.564C878.162 394.112 863.332 398.085 848.236 398.085C833.141 398.085 818.311 394.112 805.238 386.564C792.164 379.016 781.308 368.16 773.76 355.086" stroke="#1B303D" stroke-width="3" stroke-linejoin="bevel" stroke-dasharray="7 7"/>
<path d="M808.33 320.711C811.276 320.711 813.663 318.323 813.663 315.378C813.663 312.432 811.276 310.044 808.33 310.044C805.385 310.044 802.997 312.432 802.997 315.378C802.997 318.323 805.385 320.711 808.33 320.711ZM809.33 339.582L809.33 315.378L807.33 315.378L807.33 339.582L809.33 339.582Z" fill="#1B303D"/>
<path d="M797.328 350.384C794.383 350.384 791.995 352.772 791.995 355.718C791.995 358.663 794.383 361.051 797.328 361.051C800.274 361.051 802.661 358.663 802.661 355.718C802.661 352.772 800.274 350.384 797.328 350.384ZM796.328 339.582L796.328 355.718L798.328 355.718L798.328 339.582L796.328 339.582Z" fill="#1B303D"/>
<path d="M818.965 350.384C816.02 350.384 813.632 352.772 813.632 355.718C813.632 358.663 816.02 361.051 818.965 361.051C821.911 361.051 824.298 358.663 824.298 355.718C824.298 352.772 821.911 350.384 818.965 350.384ZM817.965 339.582L817.965 355.718L819.965 355.718L819.965 339.582L817.965 339.582Z" fill="#1B303D"/>
<path d="M876.907 350.384C873.962 350.384 871.574 352.772 871.574 355.718C871.574 358.663 873.962 361.051 876.907 361.051C879.853 361.051 882.241 358.663 882.241 355.718C882.241 352.772 879.853 350.384 876.907 350.384ZM875.907 339.582L875.907 355.718L877.907 355.718L877.907 339.582L875.907 339.582Z" fill="#1B303D"/>
<path d="M898.545 350.384C895.599 350.384 893.211 352.772 893.211 355.718C893.211 358.663 895.599 361.051 898.545 361.051C901.49 361.051 903.878 358.663 903.878 355.718C903.878 352.772 901.49 350.384 898.545 350.384ZM897.545 339.582L897.545 355.718L899.545 355.718L899.545 339.582L897.545 339.582Z" fill="#1B303D"/>
<path d="M887.909 320.711C890.855 320.711 893.243 318.323 893.243 315.378C893.243 312.432 890.855 310.044 887.909 310.044C884.964 310.044 882.576 312.432 882.576 315.378C882.576 318.323 884.964 320.711 887.909 320.711ZM888.909 339.582L888.909 315.378L886.909 315.378L886.909 339.582L888.909 339.582Z" fill="#1B303D"/>
<circle cx="777.158" cy="339.581" r="6.46781" fill="white" stroke="#1B303D"/>
<path d="M776.354 335.026H777.962V338.777H781.714V339.581V340.385H777.962V344.137H776.354V340.385H772.602V339.581V338.777H776.354V335.026Z" fill="#1B303D" stroke="#1B303D" stroke-linejoin="round"/>
<path d="M927.516 339.581L915.414 346.569L915.414 332.594L927.516 339.581Z" fill="#1B303D"/>
<rect x="40" y="615" width="1013" height="19" fill="#9B9250"/>
<rect x="529" y="-69" width="40" height="763" fill="white"/>
<rect x="547.25" y="-67.75" width="2.5" height="760.5" stroke="black" stroke-width="2.5" stroke-dasharray="8 8"/>
<path d="M631.536 279.536C633.488 277.583 633.488 274.417 631.536 272.464L599.716 240.645C597.763 238.692 594.597 238.692 592.645 240.645C590.692 242.597 590.692 245.763 592.645 247.716L620.929 276L592.645 304.284C590.692 306.237 590.692 309.403 592.645 311.355C594.597 313.308 597.763 313.308 599.716 311.355L631.536 279.536ZM469 281H628V271H469V281Z" fill="black"/>
<path d="M465.464 337.464C463.512 339.417 463.512 342.583 465.464 344.536L497.284 376.355C499.237 378.308 502.403 378.308 504.355 376.355C506.308 374.403 506.308 371.237 504.355 369.284L476.071 341L504.355 312.716C506.308 310.763 506.308 307.597 504.355 305.645C502.403 303.692 499.237 303.692 497.284 305.645L465.464 337.464ZM469 346H628V336H469V346Z" fill="black"/>
</g>
</svg>
