<svg width="2460" height="334" xmlns="http://www.w3.org/2000/svg" xmlns:xlink="http://www.w3.org/1999/xlink" xml:space="preserve" overflow="hidden"><g transform="translate(-8 -656)"><path d="M10.5002 693.808C10.5002 674.308 26.3081 658.5 45.8082 658.5L2430.19 658.5C2449.69 658.5 2465.5 674.308 2465.5 693.808L2465.5 947.192C2465.5 966.692 2449.69 982.5 2430.19 982.5L45.8082 982.5C26.3081 982.5 10.5002 966.692 10.5002 947.192Z" stroke="#000000" stroke-width="4.58333" stroke-miterlimit="8" fill="#FFFFFF" fill-rule="evenodd"/><path d="M2059 810 2059.49 921.375" stroke="#000000" stroke-width="2.29167" stroke-miterlimit="8" stroke-dasharray="2.29167 2.29167" fill="none" fill-rule="evenodd"/><path d="M578 813 578.491 924.375" stroke="#000000" stroke-width="2.29167" stroke-miterlimit="8" stroke-dasharray="2.29167 2.29167" fill="none" fill-rule="evenodd"/><text font-family="Calibri,Calibri_MSFontService,sans-serif" font-style="italic" font-weight="700" font-size="41" transform="matrix(1 0 0 1 50.9605 717)">In</text><text font-family="Calibri,Calibri_MSFontService,sans-serif" font-style="italic" font-weight="700" font-size="41" transform="matrix(1 0 0 1 83.6168 717)">-</text><text font-family="Calibri,Calibri_MSFontService,sans-serif" font-style="italic" font-weight="700" font-size="41" transform="matrix(1 0 0 1 96.2209 717)">ICU Mortality </text><rect x="572" y="757" width="12.0001" height="89.0001" fill="#CB7F7F"/><rect x="169" y="757" width="403" height="89.0001" fill="#A7D5FF"/><rect x="584" y="757" width="276" height="47.0001" fill="#A7D5FF"/><rect x="584" y="804" width="276" height="41.9999" fill="#FCEBA7"/><rect x="860" y="757" width="275" height="89.0001" fill="#FCEBA7"/><rect x="1134" y="757" width="925" height="89.0001" fill="#CC7FFF"/><path d="M231.376 794.187 2245.38 794.188 2245.38 814.813 231.376 814.812ZM231.375 804.5 272.625 835.437 169.5 804.5 272.625 773.562ZM2245.37 804.5 2204.12 773.563 2307.25 804.5 2204.12 835.438Z"/><path d="M567.5 804C567.5 798.753 572.425 794.5 578.5 794.5 584.575 794.5 589.5 798.753 589.5 804 589.5 809.247 584.575 813.5 578.5 813.5 572.425 813.5 567.5 809.247 567.5 804Z" stroke="#000000" stroke-width="4.58333" stroke-miterlimit="8" fill="#FFFFFF" fill-rule="evenodd"/><path d="M2048.5 801.5C2048.5 796.529 2053.42 792.5 2059.5 792.5 2065.58 792.5 2070.5 796.529 2070.5 801.5 2070.5 806.471 2065.58 810.5 2059.5 810.5 2053.42 810.5 2048.5 806.471 2048.5 801.5Z" stroke="#000000" stroke-width="4.58333" stroke-miterlimit="8" fill="#FFFFFF" fill-rule="evenodd"/><path d="M593.167 745.854 850.223 745.854 850.223 748.146 593.167 748.146ZM593.167 747 602.333 756.167 584 747 602.333 737.833ZM850.223 747 841.056 737.834 859.389 747 841.056 756.167Z"/><path d="M869.167 745.854 1126.22 745.854 1126.22 748.146 869.167 748.146ZM869.167 747 878.333 756.167 860 747 878.333 737.833ZM1126.22 747 1117.06 737.834 1135.39 747 1117.06 756.167Z"/><text font-family="Calibri,Calibri_MSFontService,sans-serif" font-style="italic" font-weight="400" font-size="31" transform="matrix(1 0 0 1 696.656 736)">24h</text><text font-family="Calibri,Calibri_MSFontService,sans-serif" font-style="italic" font-weight="400" font-size="31" transform="matrix(1 0 0 1 970.547 734)">24h</text><text font-family="Calibri,Calibri_MSFontService,sans-serif" font-style="italic" font-weight="400" font-size="31" transform="matrix(1 0 0 1 490.1 963)">ICU Admission</text><text font-family="Calibri,Calibri_MSFontService,sans-serif" font-style="italic" font-weight="400" font-size="31" transform="matrix(1 0 0 1 1917.3 961)">Discharge OR Death</text><path d="M1134 864C1134 870.352 1129.6 875.5 1124.17 875.5L866.422 875.5C860.995 875.5 856.595 880.649 856.595 887 856.595 880.649 852.195 875.5 846.768 875.5L587.826 875.5C582.399 875.5 578 870.351 578 863.999" stroke="#000000" stroke-width="2.29167" stroke-miterlimit="8" fill="none" fill-rule="evenodd"/><text font-family="Calibri,Calibri_MSFontService,sans-serif" font-style="italic" font-weight="400" font-size="31" transform="matrix(1 0 0 1 709.003 925)">No Discharge OR Death</text></g></svg>