<svg width="1088" height="688" viewBox="0 0 1088 688" fill="none" xmlns="http://www.w3.org/2000/svg">
<mask id="mask0_66_924" style="mask-type:alpha" maskUnits="userSpaceOnUse" x="38" y="146" width="115" height="193">
<ellipse cx="95.1466" cy="316.949" rx="55.1466" ry="19.3013" fill="#D9D9D9" stroke="black" stroke-width="4"/>
<rect x="40" y="167.803" width="110.293" height="149.146" fill="#D9D9D9" stroke="black" stroke-width="4"/>
<ellipse cx="95.1466" cy="167.301" rx="55.1466" ry="19.3013" fill="#D9D9D9" stroke="black" stroke-width="4"/>
</mask>
<g mask="url(#mask0_66_924)">
<rect x="40" y="148" width="110.293" height="188.25" fill="#D9D9D9" stroke="black" stroke-width="4"/>
<ellipse cx="95.1466" cy="167.301" rx="55.1466" ry="19.3013" fill="#F7F7F7" stroke="black" stroke-width="4"/>
<path d="M150.293 217.184C150.293 219.719 148.867 222.228 146.095 224.57C143.324 226.912 139.262 229.04 134.141 230.832C129.02 232.624 122.941 234.046 116.25 235.016C109.56 235.986 102.389 236.485 95.1466 236.485C87.9046 236.485 80.7336 235.986 74.0429 235.016C67.3522 234.046 61.2729 232.624 56.1521 230.832C51.0312 229.04 46.9692 226.912 44.1978 224.57C41.4264 222.228 40 219.719 40 217.184" stroke="black" stroke-width="4"/>
<path d="M150.293 267.066C150.293 269.601 148.867 272.111 146.095 274.453C143.324 276.794 139.262 278.922 134.141 280.715C129.02 282.507 122.941 283.929 116.25 284.899C109.56 285.869 102.389 286.368 95.1466 286.368C87.9046 286.368 80.7336 285.869 74.0429 284.899C67.3522 283.929 61.2729 282.507 56.1521 280.715C51.0312 278.922 46.9692 276.794 44.1978 274.453C41.4264 272.111 40 269.601 40 267.066" stroke="black" stroke-width="4"/>
<path d="M150.293 316.949C150.293 322.068 144.483 326.977 134.141 330.597C123.799 334.217 109.772 336.25 95.1466 336.25C80.5208 336.25 66.4941 334.217 56.1521 330.597C45.8101 326.977 40 322.068 40 316.949" stroke="black" stroke-width="4"/>
</g>
<mask id="mask1_66_924" style="mask-type:alpha" maskUnits="userSpaceOnUse" x="49" y="226" width="115" height="193">
<ellipse cx="106.147" cy="396.949" rx="55.1466" ry="19.3013" fill="#D9D9D9" stroke="black" stroke-width="4"/>
<rect x="51" y="247.803" width="110.293" height="149.146" fill="#D9D9D9" stroke="black" stroke-width="4"/>
<ellipse cx="106.147" cy="247.301" rx="55.1466" ry="19.3013" fill="#D9D9D9" stroke="black" stroke-width="4"/>
</mask>
<g mask="url(#mask1_66_924)">
<rect x="51" y="228" width="110.293" height="188.25" fill="#D9D9D9" stroke="black" stroke-width="4"/>
<ellipse cx="106.147" cy="247.301" rx="55.1466" ry="19.3013" fill="#F7F7F7" stroke="black" stroke-width="4"/>
<path d="M161.293 297.184C161.293 299.719 159.867 302.228 157.095 304.57C154.324 306.912 150.262 309.04 145.141 310.832C140.02 312.624 133.941 314.046 127.25 315.016C120.56 315.986 113.389 316.485 106.147 316.485C98.9046 316.485 91.7336 315.986 85.0429 315.016C78.3522 314.046 72.2729 312.624 67.1521 310.832C62.0312 309.04 57.9692 306.912 55.1978 304.57C52.4264 302.228 51 299.719 51 297.184" stroke="black" stroke-width="4"/>
<path d="M161.293 347.066C161.293 349.601 159.867 352.111 157.095 354.453C154.324 356.794 150.262 358.922 145.141 360.715C140.02 362.507 133.941 363.929 127.25 364.899C120.56 365.869 113.389 366.368 106.147 366.368C98.9046 366.368 91.7336 365.869 85.0429 364.899C78.3522 363.929 72.2729 362.507 67.1521 360.715C62.0312 358.922 57.9692 356.794 55.1978 354.453C52.4264 352.111 51 349.601 51 347.066" stroke="black" stroke-width="4"/>
<path d="M161.293 396.949C161.293 402.068 155.483 406.977 145.141 410.597C134.799 414.217 120.772 416.25 106.147 416.25C91.5208 416.25 77.4941 414.217 67.1521 410.597C56.8101 406.977 51 402.068 51 396.949" stroke="black" stroke-width="4"/>
</g>
<mask id="mask2_66_924" style="mask-type:alpha" maskUnits="userSpaceOnUse" x="108" y="180" width="115" height="193">
<ellipse cx="165.147" cy="350.949" rx="55.1466" ry="19.3013" fill="#D9D9D9" stroke="black" stroke-width="4"/>
<rect x="110" y="201.803" width="110.293" height="149.146" fill="#D9D9D9" stroke="black" stroke-width="4"/>
<ellipse cx="165.147" cy="201.301" rx="55.1466" ry="19.3013" fill="#D9D9D9" stroke="black" stroke-width="4"/>
</mask>
<g mask="url(#mask2_66_924)">
<rect x="110" y="182" width="110.293" height="188.25" fill="#D9D9D9" stroke="black" stroke-width="4"/>
<ellipse cx="165.147" cy="201.301" rx="55.1466" ry="19.3013" fill="#F7F7F7" stroke="black" stroke-width="4"/>
<path d="M220.293 251.184C220.293 253.719 218.867 256.228 216.095 258.57C213.324 260.912 209.262 263.04 204.141 264.832C199.02 266.624 192.941 268.046 186.25 269.016C179.56 269.986 172.389 270.485 165.147 270.485C157.905 270.485 150.734 269.986 144.043 269.016C137.352 268.046 131.273 266.624 126.152 264.832C121.031 263.04 116.969 260.912 114.198 258.57C111.426 256.228 110 253.719 110 251.184" stroke="black" stroke-width="4"/>
<path d="M220.293 301.066C220.293 303.601 218.867 306.111 216.095 308.453C213.324 310.794 209.262 312.922 204.141 314.715C199.02 316.507 192.941 317.929 186.25 318.899C179.56 319.869 172.389 320.368 165.147 320.368C157.905 320.368 150.734 319.869 144.043 318.899C137.352 317.929 131.273 316.507 126.152 314.715C121.031 312.922 116.969 310.794 114.198 308.453C111.426 306.111 110 303.601 110 301.066" stroke="black" stroke-width="4"/>
<path d="M220.293 350.949C220.293 356.068 214.483 360.977 204.141 364.597C193.799 368.217 179.772 370.25 165.147 370.25C150.521 370.25 136.494 368.217 126.152 364.597C115.81 360.977 110 356.068 110 350.949" stroke="black" stroke-width="4"/>
</g>
<line x1="238.09" y1="275.755" x2="289.978" y2="275.755" stroke="black" stroke-width="4"/>
<line x1="263.408" y1="202.811" x2="298.25" y2="202.811" stroke="black" stroke-width="4"/>
<line x1="263.408" y1="348.448" x2="289.978" y2="348.448" stroke="black" stroke-width="4"/>
<line x1="265.408" y1="204.811" x2="265.408" y2="350.448" stroke="black" stroke-width="4"/>
<circle cx="298.25" cy="203.307" r="8.27199" fill="#FFE6C0" stroke="black" stroke-width="4"/>
<circle cx="298.25" cy="276.251" r="8.27199" fill="#FFE6C0" stroke="black" stroke-width="4"/>
<circle cx="298.25" cy="349.194" r="8.27199" fill="#FFE6C0" stroke="black" stroke-width="4"/>
<mask id="mask3_66_924" style="mask-type:alpha" maskUnits="userSpaceOnUse" x="108" y="180" width="115" height="193">
<ellipse cx="165.147" cy="350.949" rx="55.1466" ry="19.3013" fill="#D9D9D9" stroke="black" stroke-width="4"/>
<rect x="110" y="201.803" width="110.293" height="149.146" fill="#D9D9D9" stroke="black" stroke-width="4"/>
<ellipse cx="165.147" cy="201.301" rx="55.1466" ry="19.3013" fill="#D9D9D9" stroke="black" stroke-width="4"/>
</mask>
<g mask="url(#mask3_66_924)">
<rect x="110" y="182" width="110.293" height="188.25" fill="#D9D9D9" stroke="black" stroke-width="4"/>
<ellipse cx="165.147" cy="201.301" rx="55.1466" ry="19.3013" fill="#F7F7F7" stroke="black" stroke-width="4"/>
<path d="M220.293 251.184C220.293 253.719 218.867 256.228 216.095 258.57C213.324 260.912 209.262 263.04 204.141 264.832C199.02 266.624 192.941 268.046 186.25 269.016C179.56 269.986 172.389 270.485 165.147 270.485C157.905 270.485 150.734 269.986 144.043 269.016C137.352 268.046 131.273 266.624 126.152 264.832C121.031 263.04 116.969 260.912 114.198 258.57C111.426 256.228 110 253.719 110 251.184" stroke="black" stroke-width="4"/>
<path d="M220.293 301.066C220.293 303.601 218.867 306.111 216.095 308.453C213.324 310.794 209.262 312.922 204.141 314.715C199.02 316.507 192.941 317.929 186.25 318.899C179.56 319.869 172.389 320.368 165.147 320.368C157.905 320.368 150.734 319.869 144.043 318.899C137.352 317.929 131.273 316.507 126.152 314.715C121.031 312.922 116.969 310.794 114.198 308.453C111.426 306.111 110 303.601 110 301.066" stroke="black" stroke-width="4"/>
<path d="M220.293 350.949C220.293 356.068 214.483 360.977 204.141 364.597C193.799 368.217 179.772 370.25 165.147 370.25C150.521 370.25 136.494 368.217 126.152 364.597C115.81 360.977 110 356.068 110 350.949" stroke="black" stroke-width="4"/>
</g>
<line x1="238.09" y1="275.755" x2="289.978" y2="275.755" stroke="black" stroke-width="4"/>
<line x1="263.408" y1="202.811" x2="298.25" y2="202.811" stroke="black" stroke-width="4"/>
<line x1="263.408" y1="348.448" x2="289.978" y2="348.448" stroke="black" stroke-width="4"/>
<line x1="265.408" y1="204.811" x2="265.408" y2="350.448" stroke="black" stroke-width="4"/>
<circle cx="298.25" cy="203.307" r="8.27199" fill="#FFE6C0" stroke="black" stroke-width="4"/>
<circle cx="298.25" cy="276.251" r="8.27199" fill="#FFE6C0" stroke="black" stroke-width="4"/>
<circle cx="298.25" cy="349.194" r="8.27199" fill="#FFE6C0" stroke="black" stroke-width="4"/>
<mask id="mask4_66_924" style="mask-type:alpha" maskUnits="userSpaceOnUse" x="409" y="31" width="115" height="193">
<ellipse cx="466.147" cy="201.949" rx="55.1466" ry="19.3013" fill="#D9D9D9" stroke="black" stroke-width="4"/>
<rect x="411" y="52.8027" width="110.293" height="149.146" fill="#D9D9D9" stroke="black" stroke-width="4"/>
<ellipse cx="466.147" cy="52.3013" rx="55.1466" ry="19.3013" fill="#D9D9D9" stroke="black" stroke-width="4"/>
</mask>
<g mask="url(#mask4_66_924)">
<rect x="411" y="33" width="110.293" height="188.25" fill="#D9D9D9" stroke="black" stroke-width="4"/>
<ellipse cx="466.147" cy="52.3013" rx="55.1466" ry="19.3013" fill="#F7F7F7" stroke="black" stroke-width="4"/>
<path d="M521.293 102.184C521.293 104.719 519.867 107.228 517.095 109.57C514.324 111.912 510.262 114.04 505.141 115.832C500.02 117.624 493.941 119.046 487.25 120.016C480.56 120.986 473.389 121.485 466.147 121.485C458.905 121.485 451.734 120.986 445.043 120.016C438.352 119.046 432.273 117.624 427.152 115.832C422.031 114.04 417.969 111.912 415.198 109.57C412.426 107.228 411 104.719 411 102.184" stroke="black" stroke-width="4"/>
<path d="M521.293 152.066C521.293 154.601 519.867 157.111 517.095 159.453C514.324 161.794 510.262 163.922 505.141 165.715C500.02 167.507 493.941 168.929 487.25 169.899C480.56 170.869 473.389 171.368 466.147 171.368C458.905 171.368 451.734 170.869 445.043 169.899C438.352 168.929 432.273 167.507 427.152 165.715C422.031 163.922 417.969 161.794 415.198 159.453C412.426 157.111 411 154.601 411 152.066" stroke="black" stroke-width="4"/>
<path d="M521.293 201.949C521.293 207.068 515.483 211.977 505.141 215.597C494.799 219.217 480.772 221.25 466.147 221.25C451.521 221.25 437.494 219.217 427.152 215.597C416.81 211.977 411 207.068 411 201.949" stroke="black" stroke-width="4"/>
</g>
<mask id="mask5_66_924" style="mask-type:alpha" maskUnits="userSpaceOnUse" x="420" y="111" width="115" height="193">
<ellipse cx="477.147" cy="281.949" rx="55.1466" ry="19.3013" fill="#D9D9D9" stroke="black" stroke-width="4"/>
<rect x="422" y="132.803" width="110.293" height="149.146" fill="#D9D9D9" stroke="black" stroke-width="4"/>
<ellipse cx="477.147" cy="132.301" rx="55.1466" ry="19.3013" fill="#D9D9D9" stroke="black" stroke-width="4"/>
</mask>
<g mask="url(#mask5_66_924)">
<rect x="422" y="113" width="110.293" height="188.25" fill="#D9D9D9" stroke="black" stroke-width="4"/>
<ellipse cx="477.147" cy="132.301" rx="55.1466" ry="19.3013" fill="#F7F7F7" stroke="black" stroke-width="4"/>
<path d="M532.293 182.184C532.293 184.719 530.867 187.228 528.095 189.57C525.324 191.912 521.262 194.04 516.141 195.832C511.02 197.624 504.941 199.046 498.25 200.016C491.56 200.986 484.389 201.485 477.147 201.485C469.905 201.485 462.734 200.986 456.043 200.016C449.352 199.046 443.273 197.624 438.152 195.832C433.031 194.04 428.969 191.912 426.198 189.57C423.426 187.228 422 184.719 422 182.184" stroke="black" stroke-width="4"/>
<path d="M532.293 232.066C532.293 234.601 530.867 237.111 528.095 239.453C525.324 241.794 521.262 243.922 516.141 245.715C511.02 247.507 504.941 248.929 498.25 249.899C491.56 250.869 484.389 251.368 477.147 251.368C469.905 251.368 462.734 250.869 456.043 249.899C449.352 248.929 443.273 247.507 438.152 245.715C433.031 243.922 428.969 241.794 426.198 239.453C423.426 237.111 422 234.601 422 232.066" stroke="black" stroke-width="4"/>
<path d="M532.293 281.949C532.293 287.068 526.483 291.977 516.141 295.597C505.799 299.217 491.772 301.25 477.147 301.25C462.521 301.25 448.494 299.217 438.152 295.597C427.81 291.977 422 287.068 422 281.949" stroke="black" stroke-width="4"/>
</g>
<mask id="mask6_66_924" style="mask-type:alpha" maskUnits="userSpaceOnUse" x="479" y="65" width="115" height="193">
<ellipse cx="536.147" cy="235.949" rx="55.1466" ry="19.3013" fill="#D9D9D9" stroke="black" stroke-width="4"/>
<rect x="481" y="86.8027" width="110.293" height="149.146" fill="#D9D9D9" stroke="black" stroke-width="4"/>
<ellipse cx="536.147" cy="86.3013" rx="55.1466" ry="19.3013" fill="#D9D9D9" stroke="black" stroke-width="4"/>
</mask>
<g mask="url(#mask6_66_924)">
<rect x="481" y="67" width="110.293" height="188.25" fill="#D9D9D9" stroke="black" stroke-width="4"/>
<ellipse cx="536.147" cy="86.3013" rx="55.1466" ry="19.3013" fill="#F7F7F7" stroke="black" stroke-width="4"/>
<path d="M591.293 136.184C591.293 138.719 589.867 141.228 587.095 143.57C584.324 145.912 580.262 148.04 575.141 149.832C570.02 151.624 563.941 153.046 557.25 154.016C550.56 154.986 543.389 155.485 536.147 155.485C528.905 155.485 521.734 154.986 515.043 154.016C508.352 153.046 502.273 151.624 497.152 149.832C492.031 148.04 487.969 145.912 485.198 143.57C482.426 141.228 481 138.719 481 136.184" stroke="black" stroke-width="4"/>
<path d="M591.293 186.066C591.293 188.601 589.867 191.111 587.095 193.453C584.324 195.794 580.262 197.922 575.141 199.715C570.02 201.507 563.941 202.929 557.25 203.899C550.56 204.869 543.389 205.368 536.147 205.368C528.905 205.368 521.734 204.869 515.043 203.899C508.352 202.929 502.273 201.507 497.152 199.715C492.031 197.922 487.969 195.794 485.198 193.453C482.426 191.111 481 188.601 481 186.066" stroke="black" stroke-width="4"/>
<path d="M591.293 235.949C591.293 241.068 585.483 245.977 575.141 249.597C564.799 253.217 550.772 255.25 536.147 255.25C521.521 255.25 507.494 253.217 497.152 249.597C486.81 245.977 481 241.068 481 235.949" stroke="black" stroke-width="4"/>
</g>
<line x1="609.09" y1="160.755" x2="660.978" y2="160.755" stroke="black" stroke-width="4"/>
<line x1="634.408" y1="87.8107" x2="669.25" y2="87.8107" stroke="black" stroke-width="4"/>
<line x1="634.408" y1="233.448" x2="660.978" y2="233.448" stroke="black" stroke-width="4"/>
<line x1="636.408" y1="89.8107" x2="636.408" y2="235.448" stroke="black" stroke-width="4"/>
<circle cx="669.25" cy="88.3067" r="8.27199" fill="#FFE6C0" stroke="black" stroke-width="4"/>
<circle cx="669.25" cy="161.251" r="8.27199" fill="#FFE6C0" stroke="black" stroke-width="4"/>
<circle cx="669.25" cy="234.194" r="8.27199" fill="#FFE6C0" stroke="black" stroke-width="4"/>
<mask id="mask7_66_924" style="mask-type:alpha" maskUnits="userSpaceOnUse" x="479" y="65" width="115" height="193">
<ellipse cx="536.147" cy="235.949" rx="55.1466" ry="19.3013" fill="#D9D9D9" stroke="black" stroke-width="4"/>
<rect x="481" y="86.8027" width="110.293" height="149.146" fill="#D9D9D9" stroke="black" stroke-width="4"/>
<ellipse cx="536.147" cy="86.3013" rx="55.1466" ry="19.3013" fill="#D9D9D9" stroke="black" stroke-width="4"/>
</mask>
<g mask="url(#mask7_66_924)">
<rect x="481" y="67" width="110.293" height="188.25" fill="#D9D9D9" stroke="black" stroke-width="4"/>
<ellipse cx="536.147" cy="86.3013" rx="55.1466" ry="19.3013" fill="#F7F7F7" stroke="black" stroke-width="4"/>
<path d="M591.293 136.184C591.293 138.719 589.867 141.228 587.095 143.57C584.324 145.912 580.262 148.04 575.141 149.832C570.02 151.624 563.941 153.046 557.25 154.016C550.56 154.986 543.389 155.485 536.147 155.485C528.905 155.485 521.734 154.986 515.043 154.016C508.352 153.046 502.273 151.624 497.152 149.832C492.031 148.04 487.969 145.912 485.198 143.57C482.426 141.228 481 138.719 481 136.184" stroke="black" stroke-width="4"/>
<path d="M591.293 186.066C591.293 188.601 589.867 191.111 587.095 193.453C584.324 195.794 580.262 197.922 575.141 199.715C570.02 201.507 563.941 202.929 557.25 203.899C550.56 204.869 543.389 205.368 536.147 205.368C528.905 205.368 521.734 204.869 515.043 203.899C508.352 202.929 502.273 201.507 497.152 199.715C492.031 197.922 487.969 195.794 485.198 193.453C482.426 191.111 481 188.601 481 186.066" stroke="black" stroke-width="4"/>
<path d="M591.293 235.949C591.293 241.068 585.483 245.977 575.141 249.597C564.799 253.217 550.772 255.25 536.147 255.25C521.521 255.25 507.494 253.217 497.152 249.597C486.81 245.977 481 241.068 481 235.949" stroke="black" stroke-width="4"/>
</g>
<line x1="609.09" y1="160.755" x2="660.978" y2="160.755" stroke="black" stroke-width="4"/>
<line x1="634.408" y1="87.8107" x2="669.25" y2="87.8107" stroke="black" stroke-width="4"/>
<line x1="634.408" y1="233.448" x2="660.978" y2="233.448" stroke="black" stroke-width="4"/>
<line x1="636.408" y1="89.8107" x2="636.408" y2="235.448" stroke="black" stroke-width="4"/>
<circle cx="669.25" cy="88.3067" r="8.27199" fill="#FFE6C0" stroke="black" stroke-width="4"/>
<circle cx="669.25" cy="161.251" r="8.27199" fill="#FFE6C0" stroke="black" stroke-width="4"/>
<circle cx="669.25" cy="234.194" r="8.27199" fill="#FFE6C0" stroke="black" stroke-width="4"/>
<mask id="mask8_66_924" style="mask-type:alpha" maskUnits="userSpaceOnUse" x="780" y="146" width="115" height="193">
<ellipse cx="837.147" cy="316.949" rx="55.1466" ry="19.3013" fill="#D9D9D9" stroke="black" stroke-width="4"/>
<rect x="782" y="167.803" width="110.293" height="149.146" fill="#D9D9D9" stroke="black" stroke-width="4"/>
<ellipse cx="837.147" cy="167.301" rx="55.1466" ry="19.3013" fill="#D9D9D9" stroke="black" stroke-width="4"/>
</mask>
<g mask="url(#mask8_66_924)">
<rect x="782" y="148" width="110.293" height="188.25" fill="#D9D9D9" stroke="black" stroke-width="4"/>
<ellipse cx="837.147" cy="167.301" rx="55.1466" ry="19.3013" fill="#F7F7F7" stroke="black" stroke-width="4"/>
<path d="M892.293 217.184C892.293 219.719 890.867 222.228 888.095 224.57C885.324 226.912 881.262 229.04 876.141 230.832C871.02 232.624 864.941 234.046 858.25 235.016C851.56 235.986 844.389 236.485 837.147 236.485C829.905 236.485 822.734 235.986 816.043 235.016C809.352 234.046 803.273 232.624 798.152 230.832C793.031 229.04 788.969 226.912 786.198 224.57C783.426 222.228 782 219.719 782 217.184" stroke="black" stroke-width="4"/>
<path d="M892.293 267.066C892.293 269.601 890.867 272.111 888.095 274.453C885.324 276.794 881.262 278.922 876.141 280.715C871.02 282.507 864.941 283.929 858.25 284.899C851.56 285.869 844.389 286.368 837.147 286.368C829.905 286.368 822.734 285.869 816.043 284.899C809.352 283.929 803.273 282.507 798.152 280.715C793.031 278.922 788.969 276.794 786.198 274.453C783.426 272.111 782 269.601 782 267.066" stroke="black" stroke-width="4"/>
<path d="M892.293 316.949C892.293 322.068 886.483 326.977 876.141 330.597C865.799 334.217 851.772 336.25 837.147 336.25C822.521 336.25 808.494 334.217 798.152 330.597C787.81 326.977 782 322.068 782 316.949" stroke="black" stroke-width="4"/>
</g>
<mask id="mask9_66_924" style="mask-type:alpha" maskUnits="userSpaceOnUse" x="791" y="226" width="115" height="193">
<ellipse cx="848.147" cy="396.949" rx="55.1466" ry="19.3013" fill="#D9D9D9" stroke="black" stroke-width="4"/>
<rect x="793" y="247.803" width="110.293" height="149.146" fill="#D9D9D9" stroke="black" stroke-width="4"/>
<ellipse cx="848.147" cy="247.301" rx="55.1466" ry="19.3013" fill="#D9D9D9" stroke="black" stroke-width="4"/>
</mask>
<g mask="url(#mask9_66_924)">
<rect x="793" y="228" width="110.293" height="188.25" fill="#D9D9D9" stroke="black" stroke-width="4"/>
<ellipse cx="848.147" cy="247.301" rx="55.1466" ry="19.3013" fill="#F7F7F7" stroke="black" stroke-width="4"/>
<path d="M903.293 297.184C903.293 299.719 901.867 302.228 899.095 304.57C896.324 306.912 892.262 309.04 887.141 310.832C882.02 312.624 875.941 314.046 869.25 315.016C862.56 315.986 855.389 316.485 848.147 316.485C840.905 316.485 833.734 315.986 827.043 315.016C820.352 314.046 814.273 312.624 809.152 310.832C804.031 309.04 799.969 306.912 797.198 304.57C794.426 302.228 793 299.719 793 297.184" stroke="black" stroke-width="4"/>
<path d="M903.293 347.066C903.293 349.601 901.867 352.111 899.095 354.453C896.324 356.794 892.262 358.922 887.141 360.715C882.02 362.507 875.941 363.929 869.25 364.899C862.56 365.869 855.389 366.368 848.147 366.368C840.905 366.368 833.734 365.869 827.043 364.899C820.352 363.929 814.273 362.507 809.152 360.715C804.031 358.922 799.969 356.794 797.198 354.453C794.426 352.111 793 349.601 793 347.066" stroke="black" stroke-width="4"/>
<path d="M903.293 396.949C903.293 402.068 897.483 406.977 887.141 410.597C876.799 414.217 862.772 416.25 848.147 416.25C833.521 416.25 819.494 414.217 809.152 410.597C798.81 406.977 793 402.068 793 396.949" stroke="black" stroke-width="4"/>
</g>
<mask id="mask10_66_924" style="mask-type:alpha" maskUnits="userSpaceOnUse" x="850" y="180" width="115" height="193">
<ellipse cx="907.147" cy="350.949" rx="55.1466" ry="19.3013" fill="#D9D9D9" stroke="black" stroke-width="4"/>
<rect x="852" y="201.803" width="110.293" height="149.146" fill="#D9D9D9" stroke="black" stroke-width="4"/>
<ellipse cx="907.147" cy="201.301" rx="55.1466" ry="19.3013" fill="#D9D9D9" stroke="black" stroke-width="4"/>
</mask>
<g mask="url(#mask10_66_924)">
<rect x="852" y="182" width="110.293" height="188.25" fill="#D9D9D9" stroke="black" stroke-width="4"/>
<ellipse cx="907.147" cy="201.301" rx="55.1466" ry="19.3013" fill="#F7F7F7" stroke="black" stroke-width="4"/>
<path d="M962.293 251.184C962.293 253.719 960.867 256.228 958.095 258.57C955.324 260.912 951.262 263.04 946.141 264.832C941.02 266.624 934.941 268.046 928.25 269.016C921.56 269.986 914.389 270.485 907.147 270.485C899.905 270.485 892.734 269.986 886.043 269.016C879.352 268.046 873.273 266.624 868.152 264.832C863.031 263.04 858.969 260.912 856.198 258.57C853.426 256.228 852 253.719 852 251.184" stroke="black" stroke-width="4"/>
<path d="M962.293 301.066C962.293 303.601 960.867 306.111 958.095 308.453C955.324 310.794 951.262 312.922 946.141 314.715C941.02 316.507 934.941 317.929 928.25 318.899C921.56 319.869 914.389 320.368 907.147 320.368C899.905 320.368 892.734 319.869 886.043 318.899C879.352 317.929 873.273 316.507 868.152 314.715C863.031 312.922 858.969 310.794 856.198 308.453C853.426 306.111 852 303.601 852 301.066" stroke="black" stroke-width="4"/>
<path d="M962.293 350.949C962.293 356.068 956.483 360.977 946.141 364.597C935.799 368.217 921.772 370.25 907.147 370.25C892.521 370.25 878.494 368.217 868.152 364.597C857.81 360.977 852 356.068 852 350.949" stroke="black" stroke-width="4"/>
</g>
<line x1="980.09" y1="275.755" x2="1031.98" y2="275.755" stroke="black" stroke-width="4"/>
<line x1="1005.41" y1="202.811" x2="1040.25" y2="202.811" stroke="black" stroke-width="4"/>
<line x1="1005.41" y1="348.448" x2="1031.98" y2="348.448" stroke="black" stroke-width="4"/>
<line x1="1007.41" y1="204.811" x2="1007.41" y2="350.448" stroke="black" stroke-width="4"/>
<circle cx="1040.25" cy="203.307" r="8.27199" fill="#FFE6C0" stroke="black" stroke-width="4"/>
<circle cx="1040.25" cy="276.251" r="8.27199" fill="#FFE6C0" stroke="black" stroke-width="4"/>
<circle cx="1040.25" cy="349.194" r="8.27199" fill="#FFE6C0" stroke="black" stroke-width="4"/>
<mask id="mask11_66_924" style="mask-type:alpha" maskUnits="userSpaceOnUse" x="850" y="180" width="115" height="193">
<ellipse cx="907.147" cy="350.949" rx="55.1466" ry="19.3013" fill="#D9D9D9" stroke="black" stroke-width="4"/>
<rect x="852" y="201.803" width="110.293" height="149.146" fill="#D9D9D9" stroke="black" stroke-width="4"/>
<ellipse cx="907.147" cy="201.301" rx="55.1466" ry="19.3013" fill="#D9D9D9" stroke="black" stroke-width="4"/>
</mask>
<g mask="url(#mask11_66_924)">
<rect x="852" y="182" width="110.293" height="188.25" fill="#D9D9D9" stroke="black" stroke-width="4"/>
<ellipse cx="907.147" cy="201.301" rx="55.1466" ry="19.3013" fill="#F7F7F7" stroke="black" stroke-width="4"/>
<path d="M962.293 251.184C962.293 253.719 960.867 256.228 958.095 258.57C955.324 260.912 951.262 263.04 946.141 264.832C941.02 266.624 934.941 268.046 928.25 269.016C921.56 269.986 914.389 270.485 907.147 270.485C899.905 270.485 892.734 269.986 886.043 269.016C879.352 268.046 873.273 266.624 868.152 264.832C863.031 263.04 858.969 260.912 856.198 258.57C853.426 256.228 852 253.719 852 251.184" stroke="black" stroke-width="4"/>
<path d="M962.293 301.066C962.293 303.601 960.867 306.111 958.095 308.453C955.324 310.794 951.262 312.922 946.141 314.715C941.02 316.507 934.941 317.929 928.25 318.899C921.56 319.869 914.389 320.368 907.147 320.368C899.905 320.368 892.734 319.869 886.043 318.899C879.352 317.929 873.273 316.507 868.152 314.715C863.031 312.922 858.969 310.794 856.198 308.453C853.426 306.111 852 303.601 852 301.066" stroke="black" stroke-width="4"/>
<path d="M962.293 350.949C962.293 356.068 956.483 360.977 946.141 364.597C935.799 368.217 921.772 370.25 907.147 370.25C892.521 370.25 878.494 368.217 868.152 364.597C857.81 360.977 852 356.068 852 350.949" stroke="black" stroke-width="4"/>
</g>
<line x1="980.09" y1="275.755" x2="1031.98" y2="275.755" stroke="black" stroke-width="4"/>
<line x1="1005.41" y1="202.811" x2="1040.25" y2="202.811" stroke="black" stroke-width="4"/>
<line x1="1005.41" y1="348.448" x2="1031.98" y2="348.448" stroke="black" stroke-width="4"/>
<line x1="1007.41" y1="204.811" x2="1007.41" y2="350.448" stroke="black" stroke-width="4"/>
<circle cx="1040.25" cy="203.307" r="8.27199" fill="#FFE6C0" stroke="black" stroke-width="4"/>
<circle cx="1040.25" cy="276.251" r="8.27199" fill="#FFE6C0" stroke="black" stroke-width="4"/>
<circle cx="1040.25" cy="349.194" r="8.27199" fill="#FFE6C0" stroke="black" stroke-width="4"/>
<path d="M36.6216 624.694C36.6216 624.21 36.5264 623.778 36.3359 623.397C36.1455 623.002 35.8232 622.643 35.3691 622.321C34.915 621.999 34.3145 621.706 33.5674 621.442C32.8203 621.164 31.8901 620.915 30.7769 620.695C29.4146 620.417 28.1694 620.08 27.0415 619.684C25.9282 619.289 24.9761 618.812 24.1851 618.256C23.3794 617.714 22.7568 617.077 22.3174 616.344C21.8779 615.597 21.6582 614.733 21.6582 613.751C21.6582 612.785 21.8853 611.884 22.3394 611.049C22.7935 610.199 23.4307 609.459 24.251 608.83C25.0713 608.2 26.0454 607.702 27.1733 607.335C28.3159 606.969 29.5684 606.786 30.9307 606.786C32.3955 606.786 33.7139 606.977 34.8857 607.357C36.0576 607.738 37.0537 608.266 37.874 608.939C38.6943 609.613 39.3242 610.404 39.7637 611.312C40.2178 612.206 40.4448 613.173 40.4448 614.213H36.3799C36.3799 613.7 36.248 613.202 35.9844 612.719C35.7207 612.221 35.3545 611.781 34.8857 611.4C34.417 611.02 33.8457 610.712 33.1719 610.478C32.5127 610.243 31.7656 610.126 30.9307 610.126C30.0664 610.126 29.3047 610.221 28.6455 610.412C28.001 610.602 27.4663 610.858 27.0415 611.181C26.6021 611.503 26.2725 611.876 26.0527 612.301C25.833 612.726 25.7231 613.166 25.7231 613.62C25.7231 614.088 25.811 614.506 25.9868 614.872C26.1626 615.238 26.4702 615.568 26.9097 615.861C27.3345 616.154 27.9058 616.417 28.6235 616.652C29.356 616.886 30.2788 617.113 31.3921 617.333C32.8569 617.641 34.168 618 35.3252 618.41C36.4824 618.805 37.4565 619.281 38.2476 619.838C39.0386 620.409 39.6392 621.068 40.0493 621.815C40.4741 622.562 40.6865 623.427 40.6865 624.408C40.6865 625.463 40.4448 626.422 39.9614 627.287C39.4927 628.151 38.8335 628.891 37.9839 629.506C37.1343 630.121 36.1162 630.597 34.9297 630.934C33.7432 631.271 32.4468 631.439 31.0405 631.439C29.4292 631.439 27.9937 631.227 26.7339 630.802C25.4741 630.363 24.4121 629.784 23.5479 629.066C22.6689 628.363 21.9951 627.543 21.5264 626.605C21.0723 625.668 20.8452 624.694 20.8452 623.683H24.9102C24.9688 624.518 25.1885 625.221 25.5693 625.792C25.9648 626.364 26.4556 626.825 27.0415 627.177C27.6128 627.528 28.25 627.777 28.9531 627.924C29.6562 628.07 30.3521 628.144 31.0405 628.144C32.1245 628.144 33.0693 628.019 33.875 627.77C34.6807 627.506 35.3105 627.147 35.7646 626.693C36.043 626.415 36.2554 626.107 36.4019 625.771C36.5483 625.434 36.6216 625.075 36.6216 624.694ZM63.5161 631L63.2744 627.726C62.4834 628.898 61.4946 629.813 60.3081 630.473C59.1216 631.117 57.752 631.439 56.1992 631.439C54.9541 631.439 53.8262 631.249 52.8154 630.868C51.8047 630.473 50.9404 629.865 50.2227 629.044C49.5049 628.224 48.9482 627.184 48.5527 625.924C48.1719 624.65 47.9814 623.126 47.9814 621.354V607.226H52.0464V621.398C52.0464 622.687 52.1489 623.756 52.354 624.606C52.5591 625.456 52.8667 626.129 53.2769 626.627C53.687 627.14 54.1851 627.499 54.771 627.704C55.3716 627.909 56.0601 628.012 56.8364 628.012C57.7446 628.012 58.5576 627.909 59.2754 627.704C59.9932 627.484 60.6157 627.184 61.1431 626.803C61.5825 626.496 61.9634 626.129 62.2856 625.705C62.6226 625.265 62.9009 624.789 63.1206 624.276V607.226H67.2075V631H63.5161ZM95.0249 619.376C95.0249 620.417 94.9443 621.42 94.7832 622.387C94.6367 623.339 94.417 624.232 94.124 625.067C93.7285 626.166 93.2085 627.155 92.564 628.034C91.9341 628.898 91.1724 629.616 90.2788 630.187C89.6343 630.583 88.9238 630.89 88.1475 631.11C87.3857 631.33 86.5581 631.439 85.6646 631.439C84.6392 631.439 83.7017 631.315 82.8521 631.066C82.0171 630.817 81.2627 630.458 80.5889 629.989C80.2666 629.755 79.959 629.499 79.666 629.22C79.373 628.942 79.0947 628.634 78.8311 628.297L78.6333 631H74.8979V597.25H78.9629V609.774C79.2998 609.35 79.6733 608.969 80.0835 608.632C80.4937 608.28 80.9331 607.98 81.4019 607.731C81.9878 607.423 82.6323 607.189 83.3354 607.028C84.0386 606.867 84.8003 606.786 85.6206 606.786C86.646 606.786 87.5908 606.925 88.4551 607.204C89.3193 607.482 90.103 607.87 90.8062 608.368C91.436 608.837 92 609.408 92.498 610.082C92.9961 610.741 93.4355 611.481 93.8164 612.301C94.2119 613.224 94.5122 614.25 94.7173 615.377C94.9224 616.491 95.0249 617.67 95.0249 618.915V619.376ZM90.96 618.915C90.96 618.168 90.9087 617.443 90.8062 616.74C90.7183 616.022 90.5791 615.348 90.3887 614.718C90.125 613.942 89.7808 613.231 89.356 612.587C88.9312 611.942 88.4111 611.437 87.7959 611.071C87.3711 610.807 86.895 610.602 86.3677 610.456C85.8403 610.309 85.2544 610.236 84.6099 610.236C83.9067 610.236 83.2622 610.331 82.6763 610.521C82.0903 610.697 81.5703 610.946 81.1162 611.269C80.6475 611.605 80.23 612.001 79.8638 612.455C79.5122 612.895 79.2119 613.378 78.9629 613.905V624.298C79.2266 624.826 79.5342 625.316 79.8857 625.771C80.252 626.21 80.6694 626.598 81.1382 626.935C81.6069 627.272 82.1343 627.536 82.7202 627.726C83.3062 627.902 83.9507 627.99 84.6538 627.99C85.3276 627.99 85.9429 627.909 86.4995 627.748C87.0562 627.572 87.5542 627.323 87.9937 627.001C88.5796 626.591 89.0703 626.071 89.4658 625.441C89.8613 624.811 90.1763 624.108 90.4106 623.332C90.6011 622.746 90.7402 622.116 90.8281 621.442C90.916 620.768 90.96 620.08 90.96 619.376V618.915ZM104.649 607.226H116.646V631.154C116.646 632.677 116.434 634.025 116.009 635.197C115.599 636.369 114.998 637.35 114.207 638.141C113.401 638.947 112.42 639.555 111.263 639.965C110.12 640.39 108.816 640.602 107.352 640.602C106.897 640.602 106.458 640.595 106.033 640.58C105.608 640.565 105.191 640.543 104.781 640.514C104.444 640.485 104.107 640.441 103.77 640.382C103.433 640.338 103.082 640.287 102.715 640.229L103.001 636.889C103.25 636.933 103.565 636.969 103.946 636.999C104.327 637.042 104.715 637.072 105.11 637.086C105.491 637.116 105.857 637.13 106.209 637.13C106.575 637.145 106.861 637.152 107.066 637.152C107.828 637.152 108.545 637.05 109.219 636.845C109.893 636.654 110.479 636.325 110.977 635.856C111.475 635.387 111.863 634.765 112.142 633.988C112.435 633.227 112.581 632.282 112.581 631.154V610.763H104.649V607.226ZM112.01 600.963C112.01 600.304 112.208 599.748 112.603 599.293C112.999 598.825 113.606 598.59 114.427 598.59C115.247 598.59 115.862 598.825 116.272 599.293C116.683 599.748 116.888 600.304 116.888 600.963C116.888 601.623 116.683 602.179 116.272 602.633C115.862 603.073 115.247 603.292 114.427 603.292C113.606 603.292 112.999 603.073 112.603 602.633C112.208 602.179 112.01 601.623 112.01 600.963ZM139.432 631.439C137.762 631.439 136.224 631.154 134.817 630.583C133.426 630.011 132.232 629.213 131.236 628.188C130.24 627.162 129.463 625.946 128.907 624.54C128.35 623.134 128.072 621.603 128.072 619.948V619.025C128.072 617.106 128.379 615.392 128.995 613.883C129.61 612.36 130.43 611.071 131.456 610.016C132.466 608.976 133.616 608.178 134.905 607.621C136.209 607.064 137.542 606.786 138.904 606.786C140.618 606.786 142.112 607.086 143.387 607.687C144.676 608.273 145.745 609.086 146.595 610.126C147.444 611.181 148.074 612.418 148.484 613.839C148.909 615.26 149.122 616.798 149.122 618.454V620.277H132.137V620.431C132.239 621.588 132.466 622.606 132.818 623.485C133.184 624.364 133.682 625.141 134.312 625.814C134.957 626.532 135.733 627.096 136.641 627.506C137.549 627.917 138.553 628.122 139.651 628.122C141.102 628.122 142.391 627.829 143.519 627.243C144.646 626.657 145.584 625.88 146.331 624.914L148.814 626.847C148.023 628.048 146.836 629.118 145.254 630.055C143.687 630.978 141.746 631.439 139.432 631.439ZM138.904 610.126C138.084 610.126 137.308 610.28 136.575 610.587C135.843 610.88 135.184 611.312 134.598 611.884C134.012 612.47 133.514 613.188 133.104 614.037C132.708 614.872 132.43 615.839 132.269 616.938H145.057V616.74C145.057 616.007 144.917 615.224 144.639 614.389C144.361 613.539 143.973 612.807 143.475 612.191C142.977 611.576 142.347 611.078 141.585 610.697C140.838 610.316 139.944 610.126 138.904 610.126ZM166.084 628.144C166.817 628.144 167.527 628.026 168.216 627.792C168.919 627.558 169.542 627.228 170.083 626.803C170.625 626.393 171.058 625.91 171.38 625.353C171.717 624.782 171.893 624.167 171.907 623.507H175.752C175.738 624.562 175.459 625.573 174.917 626.54C174.39 627.492 173.68 628.327 172.786 629.044C171.893 629.777 170.867 630.363 169.71 630.802C168.553 631.227 167.344 631.439 166.084 631.439C164.283 631.439 162.708 631.117 161.36 630.473C160.013 629.828 158.892 628.957 157.999 627.858C157.09 626.774 156.409 625.521 155.955 624.101C155.501 622.665 155.274 621.156 155.274 619.574V618.651C155.274 617.084 155.501 615.583 155.955 614.147C156.409 612.711 157.09 611.444 157.999 610.346C158.892 609.262 160.013 608.397 161.36 607.753C162.708 607.108 164.283 606.786 166.084 606.786C167.491 606.786 168.78 607.013 169.952 607.467C171.138 607.907 172.164 608.507 173.028 609.269C173.877 610.045 174.544 610.961 175.027 612.016C175.511 613.07 175.752 614.198 175.752 615.399H171.907C171.893 614.682 171.731 614.008 171.424 613.378C171.131 612.733 170.728 612.169 170.215 611.686C169.703 611.203 169.087 610.822 168.37 610.543C167.667 610.265 166.905 610.126 166.084 610.126C164.825 610.126 163.763 610.382 162.898 610.895C162.049 611.393 161.36 612.045 160.833 612.851C160.306 613.671 159.925 614.586 159.69 615.597C159.471 616.608 159.361 617.626 159.361 618.651V619.574C159.361 620.614 159.471 621.647 159.69 622.672C159.925 623.683 160.306 624.591 160.833 625.397C161.346 626.217 162.027 626.884 162.876 627.396C163.741 627.895 164.81 628.144 166.084 628.144ZM192.605 601.469V607.226H201.658V610.368H192.605V623.288C192.605 624.21 192.723 624.972 192.957 625.573C193.191 626.173 193.514 626.649 193.924 627.001C194.334 627.367 194.803 627.624 195.33 627.77C195.872 627.917 196.443 627.99 197.044 627.99C197.483 627.99 197.938 627.968 198.406 627.924C198.875 627.865 199.336 627.799 199.791 627.726C200.23 627.653 200.64 627.58 201.021 627.506C201.417 627.418 201.739 627.345 201.988 627.287L202.559 630.165C202.222 630.37 201.812 630.553 201.329 630.714C200.845 630.861 200.318 630.985 199.747 631.088C199.175 631.205 198.567 631.293 197.923 631.352C197.293 631.41 196.663 631.439 196.033 631.439C194.979 631.439 193.99 631.293 193.067 631C192.159 630.692 191.368 630.209 190.694 629.55C190.02 628.905 189.485 628.07 189.09 627.045C188.709 626.005 188.519 624.752 188.519 623.288V610.368H182.278V607.226H188.519V601.469H192.605ZM229.739 634.318H209.59V631H229.739V634.318ZM237.671 607.226H249.822V627.484H257.579V631H237.671V627.484H245.757V610.763H237.671V607.226ZM245.23 600.985C245.23 600.634 245.281 600.304 245.384 599.997C245.501 599.689 245.677 599.425 245.911 599.206C246.102 599.015 246.343 598.869 246.636 598.766C246.944 598.649 247.288 598.59 247.669 598.59C248.05 598.59 248.387 598.649 248.68 598.766C248.973 598.869 249.214 599.015 249.405 599.206C249.639 599.411 249.815 599.667 249.932 599.975C250.049 600.282 250.108 600.619 250.108 600.985C250.108 601.645 249.903 602.194 249.493 602.633C249.083 603.073 248.475 603.292 247.669 603.292C246.849 603.292 246.233 603.073 245.823 602.633C245.428 602.194 245.23 601.645 245.23 600.985ZM263.292 618.915C263.292 617.143 263.511 615.517 263.951 614.037C264.405 612.543 265.049 611.261 265.884 610.192C266.705 609.123 267.701 608.288 268.873 607.687C270.044 607.086 271.355 606.786 272.806 606.786C274.227 606.786 275.464 607.028 276.519 607.511C277.588 607.98 278.511 608.668 279.288 609.577V597.25H283.353V631H279.617L279.441 628.495C278.65 629.462 277.706 630.194 276.607 630.692C275.508 631.19 274.227 631.439 272.762 631.439C271.326 631.439 270.022 631.132 268.851 630.517C267.693 629.901 266.705 629.052 265.884 627.968C265.064 626.884 264.427 625.609 263.973 624.145C263.519 622.665 263.292 621.076 263.292 619.376V618.915ZM267.356 619.376C267.356 620.534 267.481 621.632 267.73 622.672C267.979 623.712 268.367 624.628 268.895 625.419C269.407 626.21 270.066 626.84 270.872 627.309C271.678 627.763 272.645 627.99 273.772 627.99C275.135 627.99 276.263 627.682 277.156 627.067C278.05 626.452 278.76 625.624 279.288 624.584V613.554C278.76 612.587 278.05 611.796 277.156 611.181C276.263 610.551 275.149 610.236 273.816 610.236C272.674 610.236 271.692 610.47 270.872 610.939C270.066 611.408 269.407 612.038 268.895 612.829C268.367 613.634 267.979 614.564 267.73 615.619C267.481 616.659 267.356 617.758 267.356 618.915V619.376ZM327.737 601.469V607.226H336.79V610.368H327.737V623.288C327.737 624.21 327.854 624.972 328.089 625.573C328.323 626.173 328.646 626.649 329.056 627.001C329.466 627.367 329.935 627.624 330.462 627.77C331.004 627.917 331.575 627.99 332.176 627.99C332.615 627.99 333.069 627.968 333.538 627.924C334.007 627.865 334.468 627.799 334.922 627.726C335.362 627.653 335.772 627.58 336.153 627.506C336.548 627.418 336.871 627.345 337.12 627.287L337.691 630.165C337.354 630.37 336.944 630.553 336.46 630.714C335.977 630.861 335.45 630.985 334.878 631.088C334.307 631.205 333.699 631.293 333.055 631.352C332.425 631.41 331.795 631.439 331.165 631.439C330.11 631.439 329.122 631.293 328.199 631C327.291 630.692 326.5 630.209 325.826 629.55C325.152 628.905 324.617 628.07 324.222 627.045C323.841 626.005 323.65 624.752 323.65 623.288V610.368H317.41V607.226H323.65V601.469H327.737ZM345.777 607.226H357.928V627.484H365.684V631H345.777V627.484H353.863V610.763H345.777V607.226ZM353.335 600.985C353.335 600.634 353.387 600.304 353.489 599.997C353.606 599.689 353.782 599.425 354.017 599.206C354.207 599.015 354.449 598.869 354.742 598.766C355.049 598.649 355.394 598.59 355.774 598.59C356.155 598.59 356.492 598.649 356.785 598.766C357.078 598.869 357.32 599.015 357.51 599.206C357.745 599.411 357.92 599.667 358.038 599.975C358.155 600.282 358.213 600.619 358.213 600.985C358.213 601.645 358.008 602.194 357.598 602.633C357.188 603.073 356.58 603.292 355.774 603.292C354.954 603.292 354.339 603.073 353.929 602.633C353.533 602.194 353.335 601.645 353.335 600.985ZM374.034 607.226L374.144 609.467C374.627 608.632 375.257 607.98 376.033 607.511C376.824 607.042 377.776 606.801 378.89 606.786C379.52 606.786 380.083 606.859 380.582 607.006C381.094 607.138 381.541 607.335 381.922 607.599C382.2 607.804 382.449 608.053 382.669 608.346C382.903 608.639 383.101 608.969 383.262 609.335C383.467 608.998 383.709 608.683 383.987 608.39C384.266 608.097 384.566 607.841 384.888 607.621C385.298 607.372 385.752 607.174 386.25 607.028C386.763 606.881 387.32 606.801 387.92 606.786C388.741 606.786 389.48 606.911 390.14 607.16C390.799 607.394 391.355 607.746 391.81 608.214C392.308 608.742 392.688 609.43 392.952 610.28C393.216 611.115 393.348 612.104 393.348 613.246V631H389.48V613.202C389.48 612.704 389.422 612.265 389.305 611.884C389.188 611.503 389.019 611.188 388.799 610.939C388.565 610.705 388.272 610.529 387.92 610.412C387.583 610.294 387.188 610.236 386.734 610.236C386.25 610.236 385.833 610.302 385.481 610.434C385.13 610.565 384.837 610.741 384.603 610.961C384.368 611.195 384.185 611.466 384.053 611.774C383.921 612.067 383.833 612.396 383.79 612.763C383.79 612.836 383.79 612.909 383.79 612.982C383.79 613.041 383.79 613.114 383.79 613.202V631H379.922V613.18C379.922 612.682 379.864 612.243 379.747 611.862C379.644 611.481 379.476 611.166 379.241 610.917C379.021 610.683 378.743 610.514 378.406 610.412C378.084 610.294 377.703 610.236 377.264 610.236C376.78 610.236 376.355 610.294 375.989 610.412C375.638 610.514 375.337 610.668 375.088 610.873C374.898 611.034 374.729 611.217 374.583 611.422C374.451 611.627 374.341 611.847 374.253 612.082V631H370.386V607.226H374.034ZM409.695 631.439C408.025 631.439 406.487 631.154 405.081 630.583C403.689 630.011 402.496 629.213 401.5 628.188C400.503 627.162 399.727 625.946 399.17 624.54C398.614 623.134 398.335 621.603 398.335 619.948V619.025C398.335 617.106 398.643 615.392 399.258 613.883C399.874 612.36 400.694 611.071 401.719 610.016C402.73 608.976 403.88 608.178 405.169 607.621C406.473 607.064 407.806 606.786 409.168 606.786C410.882 606.786 412.376 607.086 413.65 607.687C414.939 608.273 416.009 609.086 416.858 610.126C417.708 611.181 418.338 612.418 418.748 613.839C419.173 615.26 419.385 616.798 419.385 618.454V620.277H402.4V620.431C402.503 621.588 402.73 622.606 403.082 623.485C403.448 624.364 403.946 625.141 404.576 625.814C405.22 626.532 405.997 627.096 406.905 627.506C407.813 627.917 408.816 628.122 409.915 628.122C411.365 628.122 412.654 627.829 413.782 627.243C414.91 626.657 415.848 625.88 416.595 624.914L419.078 626.847C418.287 628.048 417.1 629.118 415.518 630.055C413.951 630.978 412.01 631.439 409.695 631.439ZM409.168 610.126C408.348 610.126 407.571 610.28 406.839 610.587C406.106 610.88 405.447 611.312 404.861 611.884C404.275 612.47 403.777 613.188 403.367 614.037C402.972 614.872 402.693 615.839 402.532 616.938H415.32V616.74C415.32 616.007 415.181 615.224 414.903 614.389C414.625 613.539 414.236 612.807 413.738 612.191C413.24 611.576 412.61 611.078 411.849 610.697C411.102 610.316 410.208 610.126 409.168 610.126ZM442.017 624.694C442.017 624.21 441.922 623.778 441.731 623.397C441.541 623.002 441.219 622.643 440.765 622.321C440.311 621.999 439.71 621.706 438.963 621.442C438.216 621.164 437.286 620.915 436.172 620.695C434.81 620.417 433.565 620.08 432.437 619.684C431.324 619.289 430.372 618.812 429.581 618.256C428.775 617.714 428.152 617.077 427.713 616.344C427.273 615.597 427.054 614.733 427.054 613.751C427.054 612.785 427.281 611.884 427.735 611.049C428.189 610.199 428.826 609.459 429.646 608.83C430.467 608.2 431.441 607.702 432.569 607.335C433.711 606.969 434.964 606.786 436.326 606.786C437.791 606.786 439.109 606.977 440.281 607.357C441.453 607.738 442.449 608.266 443.27 608.939C444.09 609.613 444.72 610.404 445.159 611.312C445.613 612.206 445.84 613.173 445.84 614.213H441.775C441.775 613.7 441.644 613.202 441.38 612.719C441.116 612.221 440.75 611.781 440.281 611.4C439.812 611.02 439.241 610.712 438.567 610.478C437.908 610.243 437.161 610.126 436.326 610.126C435.462 610.126 434.7 610.221 434.041 610.412C433.396 610.602 432.862 610.858 432.437 611.181C431.998 611.503 431.668 611.876 431.448 612.301C431.229 612.726 431.119 613.166 431.119 613.62C431.119 614.088 431.207 614.506 431.382 614.872C431.558 615.238 431.866 615.568 432.305 615.861C432.73 616.154 433.301 616.417 434.019 616.652C434.751 616.886 435.674 617.113 436.788 617.333C438.252 617.641 439.563 618 440.721 618.41C441.878 618.805 442.852 619.281 443.643 619.838C444.434 620.409 445.035 621.068 445.445 621.815C445.87 622.562 446.082 623.427 446.082 624.408C446.082 625.463 445.84 626.422 445.357 627.287C444.888 628.151 444.229 628.891 443.379 629.506C442.53 630.121 441.512 630.597 440.325 630.934C439.139 631.271 437.842 631.439 436.436 631.439C434.825 631.439 433.389 631.227 432.129 630.802C430.87 630.363 429.808 629.784 428.943 629.066C428.064 628.363 427.391 627.543 426.922 626.605C426.468 625.668 426.241 624.694 426.241 623.683H430.306C430.364 624.518 430.584 625.221 430.965 625.792C431.36 626.364 431.851 626.825 432.437 627.177C433.008 627.528 433.646 627.777 434.349 627.924C435.052 628.07 435.748 628.144 436.436 628.144C437.52 628.144 438.465 628.019 439.271 627.77C440.076 627.506 440.706 627.147 441.16 626.693C441.438 626.415 441.651 626.107 441.797 625.771C441.944 625.434 442.017 625.075 442.017 624.694ZM462.869 601.469V607.226H471.922V610.368H462.869V623.288C462.869 624.21 462.986 624.972 463.221 625.573C463.455 626.173 463.777 626.649 464.188 627.001C464.598 627.367 465.066 627.624 465.594 627.77C466.136 627.917 466.707 627.99 467.308 627.99C467.747 627.99 468.201 627.968 468.67 627.924C469.139 627.865 469.6 627.799 470.054 627.726C470.494 627.653 470.904 627.58 471.285 627.506C471.68 627.418 472.002 627.345 472.251 627.287L472.823 630.165C472.486 630.37 472.076 630.553 471.592 630.714C471.109 630.861 470.582 630.985 470.01 631.088C469.439 631.205 468.831 631.293 468.187 631.352C467.557 631.41 466.927 631.439 466.297 631.439C465.242 631.439 464.253 631.293 463.331 631C462.422 630.692 461.631 630.209 460.958 629.55C460.284 628.905 459.749 628.07 459.354 627.045C458.973 626.005 458.782 624.752 458.782 623.288V610.368H452.542V607.226H458.782V601.469H462.869ZM495.894 631C495.733 630.692 495.601 630.312 495.499 629.857C495.411 629.389 495.345 628.905 495.301 628.407C494.891 628.817 494.429 629.206 493.917 629.572C493.418 629.938 492.869 630.26 492.269 630.539C491.653 630.817 491.001 631.037 490.313 631.198C489.625 631.359 488.892 631.439 488.116 631.439C486.856 631.439 485.713 631.256 484.688 630.89C483.677 630.524 482.82 630.026 482.117 629.396C481.399 628.781 480.843 628.048 480.447 627.199C480.066 626.334 479.876 625.404 479.876 624.408C479.876 623.104 480.132 621.962 480.645 620.98C481.172 619.999 481.912 619.179 482.864 618.52C483.816 617.875 484.959 617.392 486.292 617.069C487.64 616.747 489.141 616.586 490.796 616.586H495.235V614.718C495.235 614 495.103 613.356 494.839 612.785C494.576 612.213 494.202 611.723 493.719 611.312C493.235 610.917 492.642 610.609 491.939 610.39C491.25 610.17 490.474 610.06 489.61 610.06C488.804 610.06 488.079 610.163 487.435 610.368C486.805 610.573 486.27 610.844 485.831 611.181C485.391 611.518 485.047 611.92 484.798 612.389C484.563 612.843 484.446 613.319 484.446 613.817H480.359C480.374 612.953 480.594 612.104 481.019 611.269C481.458 610.434 482.088 609.679 482.908 609.005C483.714 608.346 484.695 607.812 485.853 607.401C487.024 606.991 488.35 606.786 489.83 606.786C491.177 606.786 492.43 606.955 493.587 607.292C494.744 607.614 495.748 608.104 496.597 608.764C497.432 609.438 498.091 610.272 498.575 611.269C499.058 612.265 499.3 613.429 499.3 614.762V625.814C499.3 626.605 499.373 627.448 499.52 628.341C499.666 629.22 499.871 629.989 500.135 630.648V631H495.894ZM488.709 627.902C489.5 627.902 490.24 627.799 490.928 627.594C491.617 627.389 492.247 627.118 492.818 626.781C493.375 626.444 493.858 626.063 494.268 625.639C494.678 625.199 495 624.745 495.235 624.276V619.464H491.456C490.049 619.464 488.819 619.589 487.764 619.838C486.724 620.072 485.896 620.438 485.281 620.937C484.842 621.288 484.505 621.706 484.271 622.189C484.051 622.672 483.941 623.222 483.941 623.837C483.941 624.423 484.036 624.965 484.227 625.463C484.432 625.961 484.732 626.386 485.127 626.737C485.523 627.104 486.021 627.389 486.622 627.594C487.222 627.799 487.918 627.902 488.709 627.902ZM509.166 607.226L509.275 609.467C509.759 608.632 510.389 607.98 511.165 607.511C511.956 607.042 512.908 606.801 514.021 606.786C514.651 606.786 515.215 606.859 515.713 607.006C516.226 607.138 516.673 607.335 517.054 607.599C517.332 607.804 517.581 608.053 517.801 608.346C518.035 608.639 518.233 608.969 518.394 609.335C518.599 608.998 518.841 608.683 519.119 608.39C519.397 608.097 519.698 607.841 520.02 607.621C520.43 607.372 520.884 607.174 521.382 607.028C521.895 606.881 522.452 606.801 523.052 606.786C523.873 606.786 524.612 606.911 525.271 607.16C525.931 607.394 526.487 607.746 526.941 608.214C527.439 608.742 527.82 609.43 528.084 610.28C528.348 611.115 528.479 612.104 528.479 613.246V631H524.612V613.202C524.612 612.704 524.554 612.265 524.437 611.884C524.319 611.503 524.151 611.188 523.931 610.939C523.697 610.705 523.404 610.529 523.052 610.412C522.715 610.294 522.32 610.236 521.866 610.236C521.382 610.236 520.965 610.302 520.613 610.434C520.262 610.565 519.969 610.741 519.734 610.961C519.5 611.195 519.317 611.466 519.185 611.774C519.053 612.067 518.965 612.396 518.921 612.763C518.921 612.836 518.921 612.909 518.921 612.982C518.921 613.041 518.921 613.114 518.921 613.202V631H515.054V613.18C515.054 612.682 514.996 612.243 514.878 611.862C514.776 611.481 514.607 611.166 514.373 610.917C514.153 610.683 513.875 610.514 513.538 610.412C513.216 610.294 512.835 610.236 512.396 610.236C511.912 610.236 511.487 610.294 511.121 610.412C510.77 610.514 510.469 610.668 510.22 610.873C510.03 611.034 509.861 611.217 509.715 611.422C509.583 611.627 509.473 611.847 509.385 612.082V631H505.518V607.226H509.166ZM534.302 640.141V607.226H538.016L538.213 609.818C538.536 609.408 538.887 609.042 539.268 608.72C539.649 608.383 540.059 608.097 540.499 607.863C541.114 607.511 541.795 607.248 542.542 607.072C543.304 606.881 544.117 606.786 544.981 606.786C546.504 606.786 547.852 607.086 549.024 607.687C550.196 608.288 551.177 609.123 551.968 610.192C552.759 611.261 553.36 612.543 553.77 614.037C554.18 615.517 554.385 617.143 554.385 618.915V619.376C554.385 621.076 554.18 622.665 553.77 624.145C553.36 625.609 552.759 626.884 551.968 627.968C551.177 629.052 550.196 629.901 549.024 630.517C547.867 631.132 546.541 631.439 545.047 631.439C544.139 631.439 543.289 631.344 542.498 631.154C541.722 630.963 541.019 630.692 540.389 630.341C540.008 630.121 539.649 629.879 539.312 629.616C538.975 629.337 538.66 629.037 538.367 628.715V640.141H534.302ZM550.32 618.915C550.32 617.758 550.188 616.659 549.925 615.619C549.676 614.564 549.288 613.634 548.76 612.829C548.218 612.038 547.537 611.408 546.717 610.939C545.896 610.47 544.915 610.236 543.772 610.236C543.143 610.236 542.557 610.309 542.015 610.456C541.487 610.602 541.011 610.814 540.586 611.093C540.118 611.371 539.7 611.715 539.334 612.125C538.968 612.536 538.646 612.99 538.367 613.488V624.936C538.616 625.375 538.902 625.785 539.224 626.166C539.546 626.547 539.913 626.869 540.323 627.133C540.792 627.44 541.312 627.682 541.883 627.858C542.469 628.034 543.113 628.122 543.816 628.122C544.944 628.122 545.918 627.887 546.739 627.418C547.559 626.935 548.233 626.291 548.76 625.485C549.288 624.679 549.676 623.749 549.925 622.694C550.188 621.64 550.32 620.534 550.32 619.376V618.915ZM598.506 628.144C599.239 628.144 599.949 628.026 600.638 627.792C601.341 627.558 601.963 627.228 602.505 626.803C603.047 626.393 603.479 625.91 603.802 625.353C604.139 624.782 604.314 624.167 604.329 623.507H608.174C608.16 624.562 607.881 625.573 607.339 626.54C606.812 627.492 606.102 628.327 605.208 629.044C604.314 629.777 603.289 630.363 602.132 630.802C600.975 631.227 599.766 631.439 598.506 631.439C596.705 631.439 595.13 631.117 593.782 630.473C592.435 629.828 591.314 628.957 590.42 627.858C589.512 626.774 588.831 625.521 588.377 624.101C587.923 622.665 587.696 621.156 587.696 619.574V618.651C587.696 617.084 587.923 615.583 588.377 614.147C588.831 612.711 589.512 611.444 590.42 610.346C591.314 609.262 592.435 608.397 593.782 607.753C595.13 607.108 596.705 606.786 598.506 606.786C599.913 606.786 601.202 607.013 602.374 607.467C603.56 607.907 604.585 608.507 605.45 609.269C606.299 610.045 606.966 610.961 607.449 612.016C607.933 613.07 608.174 614.198 608.174 615.399H604.329C604.314 614.682 604.153 614.008 603.846 613.378C603.553 612.733 603.15 612.169 602.637 611.686C602.125 611.203 601.509 610.822 600.792 610.543C600.088 610.265 599.327 610.126 598.506 610.126C597.247 610.126 596.185 610.382 595.32 610.895C594.471 611.393 593.782 612.045 593.255 612.851C592.728 613.671 592.347 614.586 592.112 615.597C591.893 616.608 591.783 617.626 591.783 618.651V619.574C591.783 620.614 591.893 621.647 592.112 622.672C592.347 623.683 592.728 624.591 593.255 625.397C593.768 626.217 594.449 626.884 595.298 627.396C596.163 627.895 597.232 628.144 598.506 628.144ZM614.261 618.893C614.261 617.179 614.51 615.59 615.008 614.125C615.506 612.646 616.224 611.364 617.161 610.28C618.084 609.196 619.212 608.346 620.545 607.731C621.878 607.101 623.379 606.786 625.049 606.786C626.734 606.786 628.243 607.101 629.576 607.731C630.923 608.346 632.066 609.196 633.003 610.28C633.926 611.364 634.637 612.646 635.135 614.125C635.633 615.59 635.882 617.179 635.882 618.893V619.376C635.882 621.09 635.633 622.68 635.135 624.145C634.637 625.609 633.926 626.884 633.003 627.968C632.066 629.052 630.931 629.901 629.598 630.517C628.265 631.132 626.763 631.439 625.093 631.439C623.409 631.439 621.893 631.132 620.545 630.517C619.212 629.901 618.084 629.052 617.161 627.968C616.224 626.884 615.506 625.609 615.008 624.145C614.51 622.68 614.261 621.09 614.261 619.376V618.893ZM618.326 619.376C618.326 620.548 618.465 621.669 618.743 622.738C619.021 623.793 619.446 624.723 620.018 625.529C620.574 626.334 621.277 626.972 622.127 627.44C622.977 627.909 623.965 628.144 625.093 628.144C626.207 628.144 627.181 627.909 628.016 627.44C628.865 626.972 629.576 626.334 630.147 625.529C630.704 624.723 631.121 623.793 631.399 622.738C631.678 621.669 631.817 620.548 631.817 619.376V618.893C631.817 617.736 631.67 616.63 631.377 615.575C631.099 614.506 630.682 613.568 630.125 612.763C629.554 611.957 628.843 611.32 627.994 610.851C627.159 610.368 626.177 610.126 625.049 610.126C623.921 610.126 622.94 610.368 622.105 610.851C621.27 611.32 620.574 611.957 620.018 612.763C619.446 613.568 619.021 614.506 618.743 615.575C618.465 616.63 618.326 617.736 618.326 618.893V619.376ZM641.661 618.915C641.661 617.143 641.88 615.517 642.32 614.037C642.774 612.543 643.418 611.261 644.253 610.192C645.074 609.123 646.07 608.288 647.242 607.687C648.414 607.086 649.725 606.786 651.175 606.786C652.596 606.786 653.833 607.028 654.888 607.511C655.958 607.98 656.88 608.668 657.657 609.577V597.25H661.722V631H657.986L657.811 628.495C657.02 629.462 656.075 630.194 654.976 630.692C653.877 631.19 652.596 631.439 651.131 631.439C649.695 631.439 648.392 631.132 647.22 630.517C646.062 629.901 645.074 629.052 644.253 627.968C643.433 626.884 642.796 625.609 642.342 624.145C641.888 622.665 641.661 621.076 641.661 619.376V618.915ZM645.726 619.376C645.726 620.534 645.85 621.632 646.099 622.672C646.348 623.712 646.736 624.628 647.264 625.419C647.776 626.21 648.436 626.84 649.241 627.309C650.047 627.763 651.014 627.99 652.142 627.99C653.504 627.99 654.632 627.682 655.525 627.067C656.419 626.452 657.129 625.624 657.657 624.584V613.554C657.129 612.587 656.419 611.796 655.525 611.181C654.632 610.551 653.519 610.236 652.186 610.236C651.043 610.236 650.062 610.47 649.241 610.939C648.436 611.408 647.776 612.038 647.264 612.829C646.736 613.634 646.348 614.564 646.099 615.619C645.85 616.659 645.726 617.758 645.726 618.915V619.376ZM679.959 631.439C678.289 631.439 676.751 631.154 675.345 630.583C673.953 630.011 672.759 629.213 671.763 628.188C670.767 627.162 669.991 625.946 669.434 624.54C668.877 623.134 668.599 621.603 668.599 619.948V619.025C668.599 617.106 668.907 615.392 669.522 613.883C670.137 612.36 670.958 611.071 671.983 610.016C672.994 608.976 674.144 608.178 675.433 607.621C676.736 607.064 678.069 606.786 679.432 606.786C681.146 606.786 682.64 607.086 683.914 607.687C685.203 608.273 686.272 609.086 687.122 610.126C687.972 611.181 688.602 612.418 689.012 613.839C689.437 615.26 689.649 616.798 689.649 618.454V620.277H672.664V620.431C672.767 621.588 672.994 622.606 673.345 623.485C673.711 624.364 674.209 625.141 674.839 625.814C675.484 626.532 676.26 627.096 677.168 627.506C678.077 627.917 679.08 628.122 680.179 628.122C681.629 628.122 682.918 627.829 684.046 627.243C685.174 626.657 686.111 625.88 686.858 624.914L689.341 626.847C688.55 628.048 687.364 629.118 685.782 630.055C684.214 630.978 682.273 631.439 679.959 631.439ZM679.432 610.126C678.611 610.126 677.835 610.28 677.103 610.587C676.37 610.88 675.711 611.312 675.125 611.884C674.539 612.47 674.041 613.188 673.631 614.037C673.235 614.872 672.957 615.839 672.796 616.938H685.584V616.74C685.584 616.007 685.445 615.224 685.167 614.389C684.888 613.539 684.5 612.807 684.002 612.191C683.504 611.576 682.874 611.078 682.112 610.697C681.365 610.316 680.472 610.126 679.432 610.126ZM723.509 631V607.226H727.156L727.442 610.741C727.793 610.243 728.174 609.789 728.584 609.379C729.009 608.954 729.456 608.588 729.925 608.28C730.628 607.812 731.39 607.453 732.21 607.204C733.045 606.94 733.924 606.801 734.847 606.786C736.092 606.786 737.22 606.962 738.23 607.313C739.256 607.665 740.127 608.214 740.845 608.961C741.563 609.708 742.112 610.661 742.493 611.818C742.889 612.96 743.086 614.323 743.086 615.905V631H739.021V615.993C739.021 614.938 738.904 614.044 738.67 613.312C738.436 612.58 738.091 611.986 737.637 611.532C737.168 611.078 736.597 610.749 735.923 610.543C735.264 610.338 734.502 610.236 733.638 610.236C732.891 610.236 732.195 610.346 731.551 610.565C730.906 610.771 730.313 611.056 729.771 611.422C729.332 611.745 728.921 612.118 728.541 612.543C728.174 612.968 727.852 613.437 727.574 613.949V631H723.509ZM766.202 631L765.96 627.726C765.169 628.898 764.18 629.813 762.994 630.473C761.807 631.117 760.438 631.439 758.885 631.439C757.64 631.439 756.512 631.249 755.501 630.868C754.49 630.473 753.626 629.865 752.908 629.044C752.19 628.224 751.634 627.184 751.238 625.924C750.857 624.65 750.667 623.126 750.667 621.354V607.226H754.732V621.398C754.732 622.687 754.834 623.756 755.04 624.606C755.245 625.456 755.552 626.129 755.962 626.627C756.373 627.14 756.871 627.499 757.457 627.704C758.057 627.909 758.746 628.012 759.522 628.012C760.43 628.012 761.243 627.909 761.961 627.704C762.679 627.484 763.301 627.184 763.829 626.803C764.268 626.496 764.649 626.129 764.971 625.705C765.308 625.265 765.586 624.789 765.806 624.276V607.226H769.893V631H766.202ZM779.429 607.226L779.539 609.467C780.022 608.632 780.652 607.98 781.429 607.511C782.22 607.042 783.172 606.801 784.285 606.786C784.915 606.786 785.479 606.859 785.977 607.006C786.49 607.138 786.937 607.335 787.317 607.599C787.596 607.804 787.845 608.053 788.064 608.346C788.299 608.639 788.497 608.969 788.658 609.335C788.863 608.998 789.104 608.683 789.383 608.39C789.661 608.097 789.961 607.841 790.284 607.621C790.694 607.372 791.148 607.174 791.646 607.028C792.159 606.881 792.715 606.801 793.316 606.786C794.136 606.786 794.876 606.911 795.535 607.16C796.194 607.394 796.751 607.746 797.205 608.214C797.703 608.742 798.084 609.43 798.348 610.28C798.611 611.115 798.743 612.104 798.743 613.246V631H794.876V613.202C794.876 612.704 794.817 612.265 794.7 611.884C794.583 611.503 794.415 611.188 794.195 610.939C793.96 610.705 793.667 610.529 793.316 610.412C792.979 610.294 792.583 610.236 792.129 610.236C791.646 610.236 791.229 610.302 790.877 610.434C790.525 610.565 790.232 610.741 789.998 610.961C789.764 611.195 789.581 611.466 789.449 611.774C789.317 612.067 789.229 612.396 789.185 612.763C789.185 612.836 789.185 612.909 789.185 612.982C789.185 613.041 789.185 613.114 789.185 613.202V631H785.318V613.18C785.318 612.682 785.259 612.243 785.142 611.862C785.04 611.481 784.871 611.166 784.637 610.917C784.417 610.683 784.139 610.514 783.802 610.412C783.479 610.294 783.099 610.236 782.659 610.236C782.176 610.236 781.751 610.294 781.385 610.412C781.033 610.514 780.733 610.668 780.484 610.873C780.293 611.034 780.125 611.217 779.979 611.422C779.847 611.627 779.737 611.847 779.649 612.082V631H775.782V607.226H779.429ZM815.091 631.439C813.421 631.439 811.883 631.154 810.477 630.583C809.085 630.011 807.891 629.213 806.895 628.188C805.899 627.162 805.123 625.946 804.566 624.54C804.009 623.134 803.731 621.603 803.731 619.948V619.025C803.731 617.106 804.039 615.392 804.654 613.883C805.269 612.36 806.089 611.071 807.115 610.016C808.125 608.976 809.275 608.178 810.564 607.621C811.868 607.064 813.201 606.786 814.563 606.786C816.277 606.786 817.771 607.086 819.046 607.687C820.335 608.273 821.404 609.086 822.254 610.126C823.104 611.181 823.733 612.418 824.144 613.839C824.568 615.26 824.781 616.798 824.781 618.454V620.277H807.796V620.431C807.898 621.588 808.125 622.606 808.477 623.485C808.843 624.364 809.341 625.141 809.971 625.814C810.616 626.532 811.392 627.096 812.3 627.506C813.208 627.917 814.212 628.122 815.311 628.122C816.761 628.122 818.05 627.829 819.178 627.243C820.306 626.657 821.243 625.88 821.99 624.914L824.473 626.847C823.682 628.048 822.496 629.118 820.914 630.055C819.346 630.978 817.405 631.439 815.091 631.439ZM814.563 610.126C813.743 610.126 812.967 610.28 812.234 610.587C811.502 610.88 810.843 611.312 810.257 611.884C809.671 612.47 809.173 613.188 808.763 614.037C808.367 614.872 808.089 615.839 807.928 616.938H820.716V616.74C820.716 616.007 820.577 615.224 820.298 614.389C820.02 613.539 819.632 612.807 819.134 612.191C818.636 611.576 818.006 611.078 817.244 610.697C816.497 610.316 815.604 610.126 814.563 610.126ZM847.193 606.786C847.94 606.786 848.716 606.837 849.522 606.94C850.342 607.042 850.958 607.182 851.368 607.357L850.818 611.334C850.027 611.159 849.273 611.034 848.555 610.961C847.852 610.873 847.112 610.829 846.336 610.829C845.34 610.829 844.439 610.954 843.633 611.203C842.828 611.437 842.125 611.789 841.524 612.257C840.982 612.667 840.506 613.173 840.096 613.773C839.7 614.359 839.371 615.019 839.107 615.751V631H835.02V607.226H838.887L839.063 610.412L839.085 611.005C840.052 609.701 841.209 608.676 842.557 607.929C843.919 607.167 845.464 606.786 847.193 606.786ZM859.278 607.226H871.429V627.484H879.185V631H859.278V627.484H867.364V610.763H859.278V607.226ZM866.836 600.985C866.836 600.634 866.888 600.304 866.99 599.997C867.107 599.689 867.283 599.425 867.518 599.206C867.708 599.015 867.95 598.869 868.243 598.766C868.55 598.649 868.895 598.59 869.275 598.59C869.656 598.59 869.993 598.649 870.286 598.766C870.579 598.869 870.821 599.015 871.011 599.206C871.246 599.411 871.421 599.667 871.539 599.975C871.656 600.282 871.714 600.619 871.714 600.985C871.714 601.645 871.509 602.194 871.099 602.633C870.689 603.073 870.081 603.292 869.275 603.292C868.455 603.292 867.84 603.073 867.43 602.633C867.034 602.194 866.836 601.645 866.836 600.985ZM895.796 628.144C896.529 628.144 897.239 628.026 897.928 627.792C898.631 627.558 899.253 627.228 899.795 626.803C900.337 626.393 900.77 625.91 901.092 625.353C901.429 624.782 901.604 624.167 901.619 623.507H905.464C905.45 624.562 905.171 625.573 904.629 626.54C904.102 627.492 903.392 628.327 902.498 629.044C901.604 629.777 900.579 630.363 899.422 630.802C898.265 631.227 897.056 631.439 895.796 631.439C893.995 631.439 892.42 631.117 891.072 630.473C889.725 629.828 888.604 628.957 887.71 627.858C886.802 626.774 886.121 625.521 885.667 624.101C885.213 622.665 884.986 621.156 884.986 619.574V618.651C884.986 617.084 885.213 615.583 885.667 614.147C886.121 612.711 886.802 611.444 887.71 610.346C888.604 609.262 889.725 608.397 891.072 607.753C892.42 607.108 893.995 606.786 895.796 606.786C897.203 606.786 898.492 607.013 899.664 607.467C900.85 607.907 901.875 608.507 902.74 609.269C903.589 610.045 904.256 610.961 904.739 612.016C905.223 613.07 905.464 614.198 905.464 615.399H901.619C901.604 614.682 901.443 614.008 901.136 613.378C900.843 612.733 900.44 612.169 899.927 611.686C899.415 611.203 898.799 610.822 898.082 610.543C897.378 610.265 896.617 610.126 895.796 610.126C894.537 610.126 893.475 610.382 892.61 610.895C891.761 611.393 891.072 612.045 890.545 612.851C890.018 613.671 889.637 614.586 889.402 615.597C889.183 616.608 889.073 617.626 889.073 618.651V619.574C889.073 620.614 889.183 621.647 889.402 622.672C889.637 623.683 890.018 624.591 890.545 625.397C891.058 626.217 891.739 626.884 892.588 627.396C893.453 627.895 894.522 628.144 895.796 628.144ZM932.425 634.318H912.276V631H932.425V634.318ZM947.828 631L938.05 607.226H942.225L949.036 625.155L949.41 626.627L949.805 625.155L956.463 607.226H960.616L950.926 631H947.828ZM982.369 631C982.208 630.692 982.076 630.312 981.973 629.857C981.885 629.389 981.819 628.905 981.775 628.407C981.365 628.817 980.904 629.206 980.391 629.572C979.893 629.938 979.344 630.26 978.743 630.539C978.128 630.817 977.476 631.037 976.788 631.198C976.099 631.359 975.367 631.439 974.59 631.439C973.331 631.439 972.188 631.256 971.163 630.89C970.152 630.524 969.295 630.026 968.592 629.396C967.874 628.781 967.317 628.048 966.922 627.199C966.541 626.334 966.351 625.404 966.351 624.408C966.351 623.104 966.607 621.962 967.12 620.98C967.647 619.999 968.387 619.179 969.339 618.52C970.291 617.875 971.434 617.392 972.767 617.069C974.114 616.747 975.616 616.586 977.271 616.586H981.709V614.718C981.709 614 981.578 613.356 981.314 612.785C981.05 612.213 980.677 611.723 980.193 611.312C979.71 610.917 979.117 610.609 978.414 610.39C977.725 610.17 976.949 610.06 976.084 610.06C975.279 610.06 974.554 610.163 973.909 610.368C973.279 610.573 972.745 610.844 972.305 611.181C971.866 611.518 971.521 611.92 971.272 612.389C971.038 612.843 970.921 613.319 970.921 613.817H966.834C966.849 612.953 967.068 612.104 967.493 611.269C967.933 610.434 968.562 609.679 969.383 609.005C970.188 608.346 971.17 607.812 972.327 607.401C973.499 606.991 974.825 606.786 976.304 606.786C977.652 606.786 978.904 606.955 980.062 607.292C981.219 607.614 982.222 608.104 983.072 608.764C983.907 609.438 984.566 610.272 985.049 611.269C985.533 612.265 985.774 613.429 985.774 614.762V625.814C985.774 626.605 985.848 627.448 985.994 628.341C986.141 629.22 986.346 629.989 986.609 630.648V631H982.369ZM975.184 627.902C975.975 627.902 976.714 627.799 977.403 627.594C978.091 627.389 978.721 627.118 979.292 626.781C979.849 626.444 980.333 626.063 980.743 625.639C981.153 625.199 981.475 624.745 981.709 624.276V619.464H977.93C976.524 619.464 975.293 619.589 974.239 619.838C973.199 620.072 972.371 620.438 971.756 620.937C971.316 621.288 970.979 621.706 970.745 622.189C970.525 622.672 970.416 623.222 970.416 623.837C970.416 624.423 970.511 624.965 970.701 625.463C970.906 625.961 971.207 626.386 971.602 626.737C971.998 627.104 972.496 627.389 973.096 627.594C973.697 627.799 974.393 627.902 975.184 627.902ZM994.41 597.25H1006.56V627.484H1014.32V631H994.41V627.484H1002.5V600.788H994.41V597.25ZM1036.47 631L1036.22 627.726C1035.43 628.898 1034.44 629.813 1033.26 630.473C1032.07 631.117 1030.7 631.439 1029.15 631.439C1027.9 631.439 1026.78 631.249 1025.76 630.868C1024.75 630.473 1023.89 629.865 1023.17 629.044C1022.45 628.224 1021.9 627.184 1021.5 625.924C1021.12 624.65 1020.93 623.126 1020.93 621.354V607.226H1025V621.398C1025 622.687 1025.1 623.756 1025.3 624.606C1025.51 625.456 1025.82 626.129 1026.23 626.627C1026.64 627.14 1027.13 627.499 1027.72 627.704C1028.32 627.909 1029.01 628.012 1029.79 628.012C1030.69 628.012 1031.51 627.909 1032.22 627.704C1032.94 627.484 1033.56 627.184 1034.09 626.803C1034.53 626.496 1034.91 626.129 1035.23 625.705C1035.57 625.265 1035.85 624.789 1036.07 624.276V607.226H1040.16V631H1036.47ZM1058.33 631.439C1056.66 631.439 1055.12 631.154 1053.71 630.583C1052.32 630.011 1051.13 629.213 1050.13 628.188C1049.14 627.162 1048.36 625.946 1047.8 624.54C1047.25 623.134 1046.97 621.603 1046.97 619.948V619.025C1046.97 617.106 1047.28 615.392 1047.89 613.883C1048.51 612.36 1049.33 611.071 1050.35 610.016C1051.36 608.976 1052.51 608.178 1053.8 607.621C1055.11 607.064 1056.44 606.786 1057.8 606.786C1059.51 606.786 1061.01 607.086 1062.28 607.687C1063.57 608.273 1064.64 609.086 1065.49 610.126C1066.34 611.181 1066.97 612.418 1067.38 613.839C1067.81 615.26 1068.02 616.798 1068.02 618.454V620.277H1051.03V620.431C1051.14 621.588 1051.36 622.606 1051.71 623.485C1052.08 624.364 1052.58 625.141 1053.21 625.814C1053.85 626.532 1054.63 627.096 1055.54 627.506C1056.45 627.917 1057.45 628.122 1058.55 628.122C1060 628.122 1061.29 627.829 1062.42 627.243C1063.54 626.657 1064.48 625.88 1065.23 624.914L1067.71 626.847C1066.92 628.048 1065.73 629.118 1064.15 630.055C1062.58 630.978 1060.64 631.439 1058.33 631.439ZM1057.8 610.126C1056.98 610.126 1056.2 610.28 1055.47 610.587C1054.74 610.88 1054.08 611.312 1053.49 611.884C1052.91 612.47 1052.41 613.188 1052 614.037C1051.6 614.872 1051.33 615.839 1051.17 616.938H1063.95V616.74C1063.95 616.007 1063.81 615.224 1063.54 614.389C1063.26 613.539 1062.87 612.807 1062.37 612.191C1061.87 611.576 1061.24 611.078 1060.48 610.697C1059.73 610.316 1058.84 610.126 1057.8 610.126Z" fill="#188038"/>
<path d="M544 575L575.754 520L512.246 520L544 575ZM538.5 465L538.5 525.5L549.5 525.5L549.5 465L538.5 465Z" fill="#1B303D"/>
</svg>
